<?xml version="1.0" standalone="no"?>
<!DOCTYPE svg PUBLIC "-//W3C//DTD SVG 20010904//EN"
 "http://www.w3.org/TR/2001/REC-SVG-20010904/DTD/svg10.dtd">
<svg version="1.0" xmlns="http://www.w3.org/2000/svg"
 width="1280.000000pt" height="1280.000000pt" viewBox="0 0 1280.000000 1280.000000"
 preserveAspectRatio="xMidYMid meet">

<g transform="translate(0.000000,1280.000000) scale(0.100000,-0.100000)"
fill="#000000" stroke="none">
<path d="M6115 12735 c-390 -62 -731 -208 -1018 -438 -75 -61 -3470 -3437
-3463 -3445 3 -2 33 1 68 7 211 36 547 43 753 16 208 -27 421 -79 574 -140
l64 -25 1346 1347 c740 741 1373 1367 1406 1391 269 198 646 233 960 88 266
-123 455 -353 527 -643 32 -128 32 -332 -1 -458 -27 -105 -81 -226 -141 -316
-26 -39 -190 -212 -414 -437 l-371 -372 -260 257 c-143 142 -374 370 -513 508
l-252 250 -395 -395 c-217 -217 -395 -399 -395 -405 0 -5 640 -650 1423 -1433
l1422 -1422 398 398 c218 218 397 402 397 407 0 6 -227 237 -505 515 l-505
505 389 390 c213 214 413 422 443 461 250 317 408 707 448 1103 62 620 -164
1251 -605 1686 -314 311 -682 503 -1119 586 -146 28 -523 36 -661 14z"/>
<path d="M8870 11150 c0 -8 7 -52 15 -97 68 -389 27 -845 -113 -1239 l-39
-112 1334 -1333 c734 -734 1358 -1365 1388 -1404 154 -200 223 -480 181 -725
-38 -217 -115 -369 -266 -521 -106 -106 -178 -157 -291 -206 -224 -97 -464
-108 -693 -32 -109 36 -197 85 -290 160 -39 31 -226 213 -416 403 l-345 346
508 508 507 507 -403 403 -403 402 -1424 -1425 -1424 -1426 402 -402 402 -402
297 295 c164 162 394 389 510 505 l213 210 397 -396 c473 -471 569 -548 853
-683 674 -319 1470 -260 2086 155 646 435 1000 1211 909 1994 -31 269 -125
558 -255 782 -147 256 -60 165 -1917 2023 -947 949 -1723 1718 -1723 1710z"/>
<path d="M1960 8483 c-501 -51 -923 -244 -1274 -582 -328 -316 -536 -711 -617
-1168 -19 -105 -23 -166 -24 -338 0 -361 55 -609 205 -922 78 -163 166 -299
279 -433 44 -52 832 -846 1751 -1765 1577 -1575 1672 -1668 1666 -1630 -43
270 -53 455 -37 655 21 244 81 520 156 710 l25 65 -1364 1365 c-750 751 -1377
1385 -1393 1410 -182 273 -208 633 -68 936 224 486 806 690 1291 454 134 -65
210 -128 449 -371 110 -112 263 -268 340 -347 l140 -142 -508 -508 -507 -507
403 -403 402 -402 1425 1425 1424 1424 -394 398 c-217 219 -399 400 -404 402
-5 2 -236 -224 -515 -502 l-506 -506 -400 397 c-483 480 -573 551 -865 691
-207 98 -442 164 -685 191 -84 9 -317 11 -395 3z"/>
<path d="M4985 5696 l-400 -394 510 -511 510 -511 -401 -402 c-220 -222 -423
-432 -451 -468 -285 -367 -443 -829 -443 -1295 0 -573 244 -1137 658 -1525
360 -338 805 -532 1305 -571 409 -31 868 78 1222 292 222 134 207 119 2002
1913 936 935 1701 1701 1700 1702 -1 1 -54 -8 -117 -19 -162 -29 -612 -31
-773 -4 -152 26 -322 69 -461 117 l-120 41 -1360 -1359 c-749 -748 -1382
-1374 -1408 -1391 -74 -49 -205 -109 -293 -133 -66 -18 -108 -22 -240 -22
-138 -1 -172 2 -245 22 -549 150 -848 709 -666 1245 65 190 88 219 516 650
l385 387 507 -507 508 -508 402 403 403 402 -1420 1420 c-781 781 -1422 1420
-1425 1420 -3 0 -185 -177 -405 -394z"/>
</g>
</svg>
