<svg xmlns="http://www.w3.org/2000/svg" version="1.1" xmlns:xlink="http://www.w3.org/1999/xlink" xmlns:svgjs="http://svgjs.dev/svgjs" viewBox="0 0 2400 800" opacity="1"><defs><linearGradient x1="50%" y1="0%" x2="50%" y2="100%" id="sssurf-grad"><stop stop-color="hsla(230, 67%, 37%, 1.00)" stop-opacity="1" offset="0%"></stop><stop stop-color="hsla(226, 35%, 78%, 1.00)" stop-opacity="1" offset="100%"></stop></linearGradient></defs><g fill="url(#sssurf-grad)" transform="matrix(1,0,0,1,0,-499.0564880371094)"><path d="M 0 320.65875531724794 Q 342.85714285714283 450 342.85714285714283 320.3779889154897 Q 685.7142857142857 450 685.7142857142857 319.5866768451618 Q 1028.5714285714284 450 1028.5714285714284 318.35181851675344 Q 1371.4285714285713 450 1371.4285714285713 318.2467800641914 Q 1714.2857142857142 450 1714.2857142857142 320.28260618688824 Q 2057.142857142857 450 2057.142857142857 322.8948889082719 Q 2400 450 2400 322.22514105217954 L 2400 800 L 0 800 L 0 318.1129601248347 Z" transform="matrix(1,0,0,1,0,60)" opacity="0.05"></path><path d="M 0 320.65875531724794 Q 342.85714285714283 450 342.85714285714283 320.3779889154897 Q 685.7142857142857 450 685.7142857142857 319.5866768451618 Q 1028.5714285714284 450 1028.5714285714284 318.35181851675344 Q 1371.4285714285713 450 1371.4285714285713 318.2467800641914 Q 1714.2857142857142 450 1714.2857142857142 320.28260618688824 Q 2057.142857142857 450 2057.142857142857 322.8948889082719 Q 2400 450 2400 322.22514105217954 L 2400 800 L 0 800 L 0 318.1129601248347 Z" transform="matrix(1,0,0,1,0,120)" opacity="0.11"></path><path d="M 0 320.65875531724794 Q 342.85714285714283 450 342.85714285714283 320.3779889154897 Q 685.7142857142857 450 685.7142857142857 319.5866768451618 Q 1028.5714285714284 450 1028.5714285714284 318.35181851675344 Q 1371.4285714285713 450 1371.4285714285713 318.2467800641914 Q 1714.2857142857142 450 1714.2857142857142 320.28260618688824 Q 2057.142857142857 450 2057.142857142857 322.8948889082719 Q 2400 450 2400 322.22514105217954 L 2400 800 L 0 800 L 0 318.1129601248347 Z" transform="matrix(1,0,0,1,0,180)" opacity="0.17"></path><path d="M 0 320.65875531724794 Q 342.85714285714283 450 342.85714285714283 320.3779889154897 Q 685.7142857142857 450 685.7142857142857 319.5866768451618 Q 1028.5714285714284 450 1028.5714285714284 318.35181851675344 Q 1371.4285714285713 450 1371.4285714285713 318.2467800641914 Q 1714.2857142857142 450 1714.2857142857142 320.28260618688824 Q 2057.142857142857 450 2057.142857142857 322.8948889082719 Q 2400 450 2400 322.22514105217954 L 2400 800 L 0 800 L 0 318.1129601248347 Z" transform="matrix(1,0,0,1,0,240)" opacity="0.23"></path><path d="M 0 320.65875531724794 Q 342.85714285714283 450 342.85714285714283 320.3779889154897 Q 685.7142857142857 450 685.7142857142857 319.5866768451618 Q 1028.5714285714284 450 1028.5714285714284 318.35181851675344 Q 1371.4285714285713 450 1371.4285714285713 318.2467800641914 Q 1714.2857142857142 450 1714.2857142857142 320.28260618688824 Q 2057.142857142857 450 2057.142857142857 322.8948889082719 Q 2400 450 2400 322.22514105217954 L 2400 800 L 0 800 L 0 318.1129601248347 Z" transform="matrix(1,0,0,1,0,300)" opacity="0.29"></path><path d="M 0 320.65875531724794 Q 342.85714285714283 450 342.85714285714283 320.3779889154897 Q 685.7142857142857 450 685.7142857142857 319.5866768451618 Q 1028.5714285714284 450 1028.5714285714284 318.35181851675344 Q 1371.4285714285713 450 1371.4285714285713 318.2467800641914 Q 1714.2857142857142 450 1714.2857142857142 320.28260618688824 Q 2057.142857142857 450 2057.142857142857 322.8948889082719 Q 2400 450 2400 322.22514105217954 L 2400 800 L 0 800 L 0 318.1129601248347 Z" transform="matrix(1,0,0,1,0,360)" opacity="0.35"></path><path d="M 0 320.65875531724794 Q 342.85714285714283 450 342.85714285714283 320.3779889154897 Q 685.7142857142857 450 685.7142857142857 319.5866768451618 Q 1028.5714285714284 450 1028.5714285714284 318.35181851675344 Q 1371.4285714285713 450 1371.4285714285713 318.2467800641914 Q 1714.2857142857142 450 1714.2857142857142 320.28260618688824 Q 2057.142857142857 450 2057.142857142857 322.8948889082719 Q 2400 450 2400 322.22514105217954 L 2400 800 L 0 800 L 0 318.1129601248347 Z" transform="matrix(1,0,0,1,0,420)" opacity="0.41"></path><path d="M 0 320.65875531724794 Q 342.85714285714283 450 342.85714285714283 320.3779889154897 Q 685.7142857142857 450 685.7142857142857 319.5866768451618 Q 1028.5714285714284 450 1028.5714285714284 318.35181851675344 Q 1371.4285714285713 450 1371.4285714285713 318.2467800641914 Q 1714.2857142857142 450 1714.2857142857142 320.28260618688824 Q 2057.142857142857 450 2057.142857142857 322.8948889082719 Q 2400 450 2400 322.22514105217954 L 2400 800 L 0 800 L 0 318.1129601248347 Z" transform="matrix(1,0,0,1,0,480)" opacity="0.47"></path><path d="M 0 320.65875531724794 Q 342.85714285714283 450 342.85714285714283 320.3779889154897 Q 685.7142857142857 450 685.7142857142857 319.5866768451618 Q 1028.5714285714284 450 1028.5714285714284 318.35181851675344 Q 1371.4285714285713 450 1371.4285714285713 318.2467800641914 Q 1714.2857142857142 450 1714.2857142857142 320.28260618688824 Q 2057.142857142857 450 2057.142857142857 322.8948889082719 Q 2400 450 2400 322.22514105217954 L 2400 800 L 0 800 L 0 318.1129601248347 Z" transform="matrix(1,0,0,1,0,540)" opacity="0.53"></path><path d="M 0 320.65875531724794 Q 342.85714285714283 450 342.85714285714283 320.3779889154897 Q 685.7142857142857 450 685.7142857142857 319.5866768451618 Q 1028.5714285714284 450 1028.5714285714284 318.35181851675344 Q 1371.4285714285713 450 1371.4285714285713 318.2467800641914 Q 1714.2857142857142 450 1714.2857142857142 320.28260618688824 Q 2057.142857142857 450 2057.142857142857 322.8948889082719 Q 2400 450 2400 322.22514105217954 L 2400 800 L 0 800 L 0 318.1129601248347 Z" transform="matrix(1,0,0,1,0,600)" opacity="0.58"></path><path d="M 0 320.65875531724794 Q 342.85714285714283 450 342.85714285714283 320.3779889154897 Q 685.7142857142857 450 685.7142857142857 319.5866768451618 Q 1028.5714285714284 450 1028.5714285714284 318.35181851675344 Q 1371.4285714285713 450 1371.4285714285713 318.2467800641914 Q 1714.2857142857142 450 1714.2857142857142 320.28260618688824 Q 2057.142857142857 450 2057.142857142857 322.8948889082719 Q 2400 450 2400 322.22514105217954 L 2400 800 L 0 800 L 0 318.1129601248347 Z" transform="matrix(1,0,0,1,0,660)" opacity="0.64"></path><path d="M 0 320.65875531724794 Q 342.85714285714283 450 342.85714285714283 320.3779889154897 Q 685.7142857142857 450 685.7142857142857 319.5866768451618 Q 1028.5714285714284 450 1028.5714285714284 318.35181851675344 Q 1371.4285714285713 450 1371.4285714285713 318.2467800641914 Q 1714.2857142857142 450 1714.2857142857142 320.28260618688824 Q 2057.142857142857 450 2057.142857142857 322.8948889082719 Q 2400 450 2400 322.22514105217954 L 2400 800 L 0 800 L 0 318.1129601248347 Z" transform="matrix(1,0,0,1,0,720)" opacity="0.70"></path><path d="M 0 320.65875531724794 Q 342.85714285714283 450 342.85714285714283 320.3779889154897 Q 685.7142857142857 450 685.7142857142857 319.5866768451618 Q 1028.5714285714284 450 1028.5714285714284 318.35181851675344 Q 1371.4285714285713 450 1371.4285714285713 318.2467800641914 Q 1714.2857142857142 450 1714.2857142857142 320.28260618688824 Q 2057.142857142857 450 2057.142857142857 322.8948889082719 Q 2400 450 2400 322.22514105217954 L 2400 800 L 0 800 L 0 318.1129601248347 Z" transform="matrix(1,0,0,1,0,780)" opacity="0.76"></path><path d="M 0 320.65875531724794 Q 342.85714285714283 450 342.85714285714283 320.3779889154897 Q 685.7142857142857 450 685.7142857142857 319.5866768451618 Q 1028.5714285714284 450 1028.5714285714284 318.35181851675344 Q 1371.4285714285713 450 1371.4285714285713 318.2467800641914 Q 1714.2857142857142 450 1714.2857142857142 320.28260618688824 Q 2057.142857142857 450 2057.142857142857 322.8948889082719 Q 2400 450 2400 322.22514105217954 L 2400 800 L 0 800 L 0 318.1129601248347 Z" transform="matrix(1,0,0,1,0,840)" opacity="0.82"></path><path d="M 0 320.65875531724794 Q 342.85714285714283 450 342.85714285714283 320.3779889154897 Q 685.7142857142857 450 685.7142857142857 319.5866768451618 Q 1028.5714285714284 450 1028.5714285714284 318.35181851675344 Q 1371.4285714285713 450 1371.4285714285713 318.2467800641914 Q 1714.2857142857142 450 1714.2857142857142 320.28260618688824 Q 2057.142857142857 450 2057.142857142857 322.8948889082719 Q 2400 450 2400 322.22514105217954 L 2400 800 L 0 800 L 0 318.1129601248347 Z" transform="matrix(1,0,0,1,0,900)" opacity="0.88"></path><path d="M 0 320.65875531724794 Q 342.85714285714283 450 342.85714285714283 320.3779889154897 Q 685.7142857142857 450 685.7142857142857 319.5866768451618 Q 1028.5714285714284 450 1028.5714285714284 318.35181851675344 Q 1371.4285714285713 450 1371.4285714285713 318.2467800641914 Q 1714.2857142857142 450 1714.2857142857142 320.28260618688824 Q 2057.142857142857 450 2057.142857142857 322.8948889082719 Q 2400 450 2400 322.22514105217954 L 2400 800 L 0 800 L 0 318.1129601248347 Z" transform="matrix(1,0,0,1,0,960)" opacity="0.94"></path><path d="M 0 320.65875531724794 Q 342.85714285714283 450 342.85714285714283 320.3779889154897 Q 685.7142857142857 450 685.7142857142857 319.5866768451618 Q 1028.5714285714284 450 1028.5714285714284 318.35181851675344 Q 1371.4285714285713 450 1371.4285714285713 318.2467800641914 Q 1714.2857142857142 450 1714.2857142857142 320.28260618688824 Q 2057.142857142857 450 2057.142857142857 322.8948889082719 Q 2400 450 2400 322.22514105217954 L 2400 800 L 0 800 L 0 318.1129601248347 Z" transform="matrix(1,0,0,1,0,1020)" opacity="1.00" style="background: transparent" ></path></g></svg>