<?xml version="1.0" standalone="no"?>
<!DOCTYPE svg PUBLIC "-//W3C//DTD SVG 20010904//EN"
 "http://www.w3.org/TR/2001/REC-SVG-20010904/DTD/svg10.dtd">
<svg version="1.0" xmlns="http://www.w3.org/2000/svg"
 width="4091.000000pt" height="1804.000000pt" viewBox="0 0 4091.000000 1804.000000"
 preserveAspectRatio="xMidYMid meet">

<g transform="translate(0.000000,1804.000000) scale(0.100000,-0.100000)"
fill="#000000" stroke="none">
<path d="M0 13665 l0 -4375 43 -2 42 -1 -45 -6 c-25 -3 79 -6 230 -6 151 0
259 3 240 7 -20 4 5 6 58 4 50 -2 92 0 92 5 0 5 68 9 150 9 83 0 150 -4 150
-8 0 -4 42 -14 93 -21 50 -6 126 -19 167 -27 176 -35 335 -40 510 -15 41 5
104 12 140 15 36 3 110 10 165 17 121 14 437 17 675 6 153 -7 339 -1 475 17
153 20 329 28 470 21 88 -4 420 -9 738 -11 482 -3 590 -1 648 11 39 8 94 15
124 15 30 0 57 5 60 10 8 13 287 13 300 1 6 -5 44 -12 85 -14 41 -3 95 -9 120
-15 52 -13 476 -14 445 -2 -11 5 111 9 270 10 160 1 385 5 500 9 116 4 377 4
580 -1 204 -5 426 -9 495 -8 88 0 121 -2 110 -10 -10 -6 144 -9 487 -9 540 1
632 6 838 49 28 6 190 15 360 19 171 5 364 16 430 24 150 19 1131 20 1143 1 4
-6 36 -14 72 -17 36 -4 99 -11 140 -17 111 -15 445 -30 698 -30 131 0 222 -4
222 -9 0 -6 44 -8 108 -5 375 17 627 26 692 26 126 0 416 -12 527 -21 59 -5
146 -6 201 -1 53 5 106 8 117 7 11 -1 52 3 90 10 147 25 315 35 470 28 117 -6
155 -5 155 4 0 9 25 12 83 11 45 -1 269 -1 497 -1 228 1 497 -3 596 -9 100 -6
247 -10 328 -11 80 0 146 -4 146 -8 0 -10 300 -26 475 -26 166 0 423 15 453
26 13 5 73 9 133 9 71 0 109 4 109 11 0 6 27 10 73 10 39 0 122 3 182 8 218
18 526 23 1485 25 579 2 1062 8 1190 14 118 7 406 14 640 17 234 2 475 8 535
14 61 5 223 11 360 14 257 6 342 -1 505 -37 40 -9 90 -16 110 -16 42 0 171
-17 178 -25 3 -3 12 1 21 9 30 26 390 46 851 47 184 1 407 3 495 4 88 2 147 0
131 -3 -16 -4 292 -7 685 -6 610 0 743 3 914 18 110 10 223 20 250 22 71 4
222 23 275 34 25 5 88 12 140 16 52 3 111 7 130 9 69 6 228 34 387 69 90 20
176 36 193 36 16 0 30 4 30 8 0 5 28 14 63 20 34 5 91 17 127 25 35 9 68 13
73 10 4 -2 14 0 21 6 9 7 16 5 26 -9 8 -12 26 -20 42 -20 21 0 28 -5 28 -20 0
-11 -4 -20 -9 -20 -5 0 -11 -13 -15 -30 -3 -18 -12 -30 -21 -30 -18 0 -21 -20
-2 -20 6 0 4 -5 -5 -11 -10 -5 -18 -17 -18 -24 0 -8 -8 -23 -18 -33 -25 -25
-63 -88 -56 -94 3 -3 -9 -20 -25 -39 -17 -18 -28 -35 -26 -39 6 -10 -13 -35
-27 -35 -9 0 -12 -12 -10 -39 3 -24 0 -36 -6 -32 -16 10 -28 -20 -24 -59 3
-25 9 -35 22 -35 9 0 25 -9 34 -19 10 -11 37 -21 69 -25 30 -4 86 -24 132 -47
71 -36 90 -41 173 -46 68 -4 99 -2 118 8 29 15 68 69 107 151 36 73 68 105
148 146 90 46 116 52 279 63 80 6 199 14 265 19 66 4 136 13 155 19 19 6 47
11 63 11 17 0 30 7 34 18 4 9 28 37 55 63 46 44 62 79 35 79 -9 0 -12 10 -9
30 2 17 8 30 13 30 5 0 9 22 9 49 0 28 5 53 10 56 6 3 10 31 10 61 0 30 9 83
20 117 11 34 22 91 25 127 3 36 12 110 20 165 7 55 14 117 15 138 0 28 8 46
30 70 16 18 30 36 30 40 0 20 32 37 69 37 22 0 43 5 47 11 3 6 19 9 35 5 20
-4 28 -2 26 7 -1 6 9 13 23 15 39 5 112 34 145 57 17 12 44 28 60 36 39 18 51
27 92 68 19 19 60 54 91 78 31 24 79 66 108 93 29 28 56 50 60 50 3 0 18 12
32 27 24 26 68 55 105 69 9 3 17 10 17 15 0 5 5 9 11 9 6 0 17 7 25 15 9 8 27
18 42 21 15 4 32 13 38 21 7 8 25 16 40 19 16 2 39 10 51 16 24 12 77 2 133
-25 36 -17 115 -101 176 -187 47 -68 136 -158 182 -185 9 -5 95 -12 189 -16
142 -4 176 -9 191 -22 10 -9 26 -17 35 -17 9 0 17 -4 17 -10 0 -5 9 -10 20
-10 11 0 20 -3 20 -7 0 -9 49 -33 67 -33 7 0 13 -4 13 -9 0 -13 109 -21 175
-12 86 12 260 40 330 55 45 9 125 10 323 4 174 -5 269 -5 282 2 10 5 30 10 44
10 14 0 28 5 31 10 4 6 33 24 66 40 32 17 59 34 59 39 0 4 16 16 35 27 19 10
35 22 35 26 0 5 4 8 10 8 13 0 94 61 145 110 39 36 95 127 95 152 0 7 8 27 17
43 26 46 24 209 -2 250 -20 31 -48 63 -49 56 -1 -2 -21 6 -46 17 -51 23 -149
52 -173 52 -10 0 -17 5 -17 11 0 6 -20 8 -57 4 -32 -4 -72 -7 -89 -8 -17 -1
-38 -8 -46 -15 -8 -6 -63 -17 -121 -23 -101 -11 -108 -10 -139 10 -18 11 -27
21 -20 21 9 0 11 7 7 21 -7 22 27 69 51 69 7 0 14 4 16 10 2 5 46 12 98 16 52
3 108 12 124 20 17 8 47 17 68 20 29 5 54 22 103 69 36 35 65 66 65 69 0 3 13
27 28 53 16 27 34 71 40 98 48 219 46 286 -12 451 -28 77 -48 264 -29 264 6 0
14 15 17 34 12 62 145 166 214 166 13 0 44 5 69 12 35 8 72 8 157 -2 144 -16
284 -15 339 4 84 29 143 59 168 87 15 15 30 25 33 22 3 -4 6 3 6 15 0 11 4 23
9 26 7 5 17 57 36 181 14 96 33 136 87 187 40 38 140 78 197 78 14 0 55 7 91
16 36 9 70 17 77 18 7 1 16 5 19 9 4 4 18 7 31 7 12 0 23 4 23 10 0 5 11 12
25 16 14 3 29 12 33 18 4 7 39 27 77 45 39 18 87 41 108 52 22 10 45 19 53 19
8 0 22 4 32 9 37 20 160 51 199 51 23 0 45 5 48 10 4 6 75 10 181 10 113 0
208 6 272 16 132 22 324 13 442 -19 86 -24 230 -92 230 -108 0 -5 5 -9 11 -9
6 0 28 -14 48 -30 51 -43 54 -45 74 -53 10 -4 16 -11 12 -16 -3 -5 4 -13 16
-16 12 -4 48 -36 81 -71 34 -35 68 -64 77 -64 9 0 25 -7 35 -15 38 -29 167 -8
189 31 4 7 15 10 24 7 10 -4 14 -2 10 4 -7 10 25 42 79 79 40 27 73 33 274 44
178 10 291 23 312 36 7 5 27 9 43 10 35 3 145 33 160 44 9 6 132 14 190 12 53
-3 197 -21 250 -32 70 -14 448 -8 468 8 22 18 215 4 282 -20 57 -21 91 -47 77
-58 -4 -3 -9 -30 -11 -60 -1 -30 -7 -56 -12 -58 -5 -2 -9 -10 -9 -18 0 -7 -9
-19 -20 -26 -11 -7 -20 -18 -20 -24 0 -29 -232 -109 -370 -128 -19 -3 -64 -12
-100 -21 -36 -9 -80 -19 -97 -22 -18 -3 -33 -9 -33 -14 0 -5 -5 -9 -12 -9 -14
0 -181 -80 -188 -90 -3 -4 -26 -13 -52 -21 -27 -7 -48 -17 -48 -21 0 -4 -8 -8
-18 -8 -10 0 -22 -4 -28 -10 -18 -18 -163 -26 -307 -18 -255 16 -555 -1 -660
-37 -27 -9 -57 -17 -68 -18 -10 -1 -19 -5 -19 -10 0 -15 -107 -117 -123 -117
-9 0 -17 -6 -17 -13 0 -7 -21 -19 -47 -27 -26 -7 -59 -19 -73 -27 -14 -7 -46
-13 -72 -13 -25 0 -48 -4 -50 -9 -1 -4 -64 -11 -139 -14 -75 -3 -145 -10 -155
-15 -10 -6 -30 -13 -44 -16 -36 -8 -167 -96 -227 -153 -28 -28 -64 -61 -80
-74 -15 -13 -48 -51 -73 -84 -25 -33 -53 -69 -62 -79 -10 -11 -18 -26 -18 -33
0 -7 -9 -21 -20 -30 -11 -10 -20 -23 -20 -29 0 -31 -210 -255 -266 -284 -16
-8 -39 -25 -52 -37 -12 -13 -48 -35 -80 -50 -31 -14 -59 -30 -62 -34 -3 -4
-32 -20 -65 -36 -88 -42 -95 -46 -95 -63 0 -8 -12 -26 -25 -39 -30 -28 -29
-23 -7 -86 12 -34 26 -54 44 -63 15 -7 37 -27 50 -45 12 -18 36 -43 52 -57 16
-14 45 -42 64 -62 19 -21 51 -43 71 -49 20 -6 41 -15 46 -19 16 -11 136 -39
195 -44 30 -3 80 -10 110 -15 112 -19 244 -12 315 18 63 27 133 66 129 73 -3
4 3 8 13 8 24 0 96 101 105 148 4 20 10 62 13 92 18 165 50 245 116 287 19 13
39 26 44 30 6 5 24 9 40 11 17 2 46 7 65 13 86 23 187 -6 212 -61 7 -17 16
-30 20 -30 5 0 8 -16 8 -35 0 -19 9 -54 19 -78 11 -23 24 -59 30 -80 13 -52
52 -100 96 -121 155 -74 299 -55 551 73 146 73 198 91 289 97 105 7 138 5 163
-8 27 -14 27 -19 2 -48 -11 -13 -20 -26 -20 -30 0 -12 -91 -103 -128 -129 -19
-13 -50 -39 -70 -57 -21 -19 -40 -34 -43 -34 -10 0 -159 -150 -217 -216 -49
-58 -88 -135 -75 -148 4 -3 1 -6 -5 -6 -7 0 -11 -3 -10 -7 4 -20 -16 -113 -24
-113 -5 0 -7 -8 -4 -18 4 -10 -3 -37 -15 -61 -12 -25 -24 -80 -30 -134 -5 -51
-15 -102 -21 -114 -7 -14 -8 -51 -4 -105 9 -101 9 -122 3 -170 -3 -21 -1 -38
4 -38 6 0 5 -9 -1 -21 -6 -11 -13 -29 -15 -41 -2 -11 -19 -34 -37 -52 -30 -29
-38 -31 -99 -30 -59 0 -71 4 -120 38 -57 40 -115 108 -121 141 -1 11 -7 23
-11 26 -5 3 -19 34 -31 68 -12 34 -36 76 -53 95 -34 35 -127 76 -174 76 -16 0
-29 5 -29 10 0 12 -93 12 -200 1 -41 -5 -79 -4 -84 0 -6 5 -20 9 -33 9 -13 0
-23 4 -23 8 0 4 -22 19 -50 33 -27 13 -50 27 -50 32 0 4 -7 7 -15 7 -9 0 -32
8 -53 19 -20 10 -58 23 -84 30 -26 6 -64 20 -83 31 -19 11 -54 23 -78 26 -23
4 -44 11 -47 15 -3 4 -30 12 -60 17 -30 5 -89 18 -130 30 -41 11 -100 23 -132
27 -31 3 -73 15 -95 26 -29 16 -60 21 -135 23 -58 1 -96 -2 -95 -8 1 -5 -15
-19 -36 -30 -20 -12 -45 -32 -53 -45 -13 -18 -18 -20 -25 -10 -8 11 -11 11
-20 -3 -5 -10 -20 -19 -32 -19 -18 -1 -19 -2 -4 -6 17 -4 17 -6 2 -23 -20 -22
-18 -107 2 -102 16 3 18 -125 3 -148 -8 -13 -10 -13 -10 0 0 25 -20 -4 -25
-36 -2 -16 -13 -48 -24 -71 -12 -23 -21 -47 -21 -53 0 -5 -6 -10 -14 -10 -9 0
-12 -8 -9 -25 3 -14 -1 -31 -10 -40 -15 -14 -34 -114 -28 -144 5 -27 -22 -71
-57 -91 l-35 -21 -67 30 c-59 27 -74 30 -132 26 -80 -6 -113 -17 -128 -45 -6
-11 -16 -20 -23 -20 -17 0 -67 -52 -67 -69 0 -18 -64 -91 -94 -106 -34 -18
-166 -18 -166 0 0 7 -11 20 -24 29 -14 9 -32 33 -41 53 -9 21 -21 46 -26 55
-5 10 -9 25 -9 33 0 16 -28 65 -43 76 -5 3 -9 10 -9 15 -1 22 -12 33 -48 50
-22 11 -40 22 -40 27 0 4 -11 7 -24 7 -14 0 -28 4 -31 10 -8 12 -99 13 -123 1
-27 -14 -109 -31 -147 -31 -18 0 -36 -4 -39 -9 -3 -4 -32 -11 -64 -13 -90 -9
-106 -19 -248 -169 -15 -16 -31 -29 -36 -29 -4 0 -8 -6 -8 -12 0 -7 -17 -24
-37 -38 -21 -14 -51 -41 -68 -59 -16 -19 -38 -42 -49 -50 -10 -9 -30 -28 -43
-43 -32 -34 -83 -54 -83 -32 0 7 -7 14 -14 14 -8 0 -21 12 -28 27 -14 30 -46
42 -59 22 -4 -7 -14 -14 -22 -15 -23 -3 -67 -35 -67 -49 0 -8 -9 -10 -27 -7
-21 4 -25 2 -20 -11 4 -11 2 -14 -9 -10 -7 3 -14 0 -14 -6 0 -6 -17 -11 -37
-12 -35 -1 -36 -2 -13 -10 30 -10 -183 -3 -220 7 -13 4 -33 16 -44 25 -10 10
-23 16 -28 13 -4 -3 -14 -2 -20 2 -7 5 -19 9 -28 11 -8 1 -46 9 -84 17 -92 19
-293 13 -345 -11 -42 -20 -92 -53 -106 -71 -6 -7 -20 -18 -31 -25 -58 -35 -94
-60 -94 -67 0 -4 -27 -13 -60 -19 -47 -9 -64 -9 -82 1 -13 7 -29 11 -37 9 -8
-1 -24 2 -35 7 -12 6 -49 23 -84 38 -34 15 -62 31 -62 35 0 26 -266 72 -293
51 -7 -5 -43 -12 -81 -15 -37 -4 -73 -10 -80 -15 -6 -5 -24 -12 -41 -16 -66
-14 -115 -31 -115 -38 0 -4 -6 -8 -13 -8 -7 0 -23 -9 -35 -20 -12 -11 -28 -20
-37 -20 -8 0 -15 -4 -15 -8 0 -5 -12 -15 -27 -23 -16 -8 -30 -16 -33 -19 -16
-16 -74 -28 -96 -19 -14 5 -44 11 -67 13 -57 6 -167 36 -192 52 -12 8 -54 20
-95 27 -61 12 -90 12 -155 3 -44 -7 -93 -18 -110 -25 -16 -7 -49 -16 -73 -18
-23 -3 -45 -10 -48 -14 -3 -5 -18 -9 -33 -9 -15 0 -31 -4 -37 -9 -5 -5 -24
-11 -43 -13 -28 -2 -36 -8 -42 -32 -4 -15 -4 -36 0 -45 16 -30 29 -66 35 -91
3 -14 24 -45 46 -69 46 -49 182 -131 220 -131 20 0 22 -2 10 -10 -12 -8 -10
-10 8 -10 24 0 84 -29 90 -42 2 -5 9 -8 16 -8 13 0 109 -41 196 -83 53 -26 97
-69 117 -116 13 -30 13 -39 -3 -80 -9 -25 -20 -50 -24 -56 -4 -5 -10 -23 -14
-40 -4 -16 -16 -37 -27 -45 -11 -9 -21 -24 -23 -33 -2 -15 -136 -152 -136
-139 0 2 -15 -6 -34 -17 -67 -42 -122 -7 -155 97 -40 125 -96 222 -178 309
-43 46 -100 107 -126 136 -68 76 -139 106 -291 124 -81 9 -196 -22 -341 -91
-27 -14 -65 -30 -82 -38 -18 -7 -33 -16 -33 -20 0 -5 -9 -8 -20 -8 -11 0 -20
-4 -20 -10 0 -5 -9 -10 -20 -10 -11 0 -20 -4 -20 -10 0 -5 -9 -10 -20 -10 -11
0 -20 -4 -20 -9 0 -5 -8 -12 -19 -16 -10 -3 -31 -17 -47 -30 -16 -14 -35 -25
-42 -25 -7 0 -11 -4 -8 -8 3 -5 -4 -21 -15 -38 -37 -55 -68 -133 -80 -201 -7
-37 -16 -72 -21 -78 -4 -5 -8 -16 -8 -25 0 -9 -19 -37 -42 -61 -46 -48 -119
-79 -187 -79 -36 0 -112 20 -147 38 -33 17 -67 30 -137 53 -37 13 -67 26 -67
31 0 4 -6 8 -13 8 -18 0 -67 24 -67 33 0 4 -6 7 -14 7 -7 0 -27 14 -44 30 -18
17 -36 30 -41 30 -9 0 -18 17 -19 33 0 14 -54 67 -67 67 -7 0 -23 10 -36 21
-44 39 -70 52 -117 60 -95 16 -230 20 -325 10 -118 -13 -178 -41 -243 -110
-41 -44 -114 -154 -114 -171 0 -5 -4 -10 -8 -12 -4 -1 -23 -28 -41 -58 -19
-30 -36 -57 -40 -60 -3 -3 -31 -34 -61 -70 -73 -87 -92 -103 -132 -116 -10 -4
-18 -10 -18 -14 0 -4 -19 -10 -42 -14 -23 -4 -47 -11 -53 -15 -5 -5 -46 -4
-90 1 -124 15 -264 4 -333 -26 -134 -58 -234 -56 -307 8 -16 14 -33 26 -36 26
-3 0 -28 20 -54 44 -105 98 -228 137 -433 135 -109 -1 -192 11 -236 33 -10 6
-28 12 -40 13 -11 2 -52 13 -91 25 -140 42 -345 65 -360 40 -3 -5 -19 -10 -36
-10 -16 0 -37 -4 -47 -9 -26 -13 -94 -34 -122 -37 -14 -2 -49 -6 -78 -10 -53
-7 -142 10 -142 27 0 5 -7 9 -15 9 -8 0 -30 9 -50 20 -20 11 -44 20 -55 20
-10 0 -25 6 -32 13 -9 8 -43 12 -103 11 -97 0 -177 -21 -214 -55 -11 -10 -23
-19 -27 -19 -4 0 -34 -28 -67 -61 -74 -77 -172 -157 -217 -177 -19 -8 -53 -23
-75 -33 -22 -10 -56 -24 -74 -31 -19 -7 -58 -25 -85 -41 -28 -15 -79 -41 -113
-58 -35 -17 -63 -35 -63 -40 0 -5 -6 -9 -13 -9 -8 0 -22 -10 -33 -22 -28 -31
-164 -118 -185 -118 -11 0 -19 -4 -19 -10 0 -5 -9 -10 -21 -10 -29 0 -173 -42
-177 -52 -2 -4 -11 -8 -20 -8 -9 0 -39 -11 -67 -25 -46 -22 -114 -44 -189 -60
-23 -5 -27 -8 -15 -16 11 -7 10 -9 -6 -7 -29 2 -85 -13 -85 -23 0 -5 -13 -9
-30 -9 -16 0 -30 -5 -30 -11 0 -8 -13 -9 -39 -5 -58 9 -131 43 -131 61 0 9
-10 15 -27 16 l-28 1 25 8 c24 8 24 8 -7 9 -17 1 -35 6 -38 11 -3 6 -24 10
-47 10 -24 0 -51 8 -69 21 -16 11 -33 18 -38 14 -6 -3 -15 3 -20 14 -6 11 -28
25 -48 31 -21 7 -49 18 -63 25 -14 7 -44 19 -67 26 -24 7 -43 16 -43 21 0 4
-14 8 -30 8 -17 0 -47 7 -68 15 -52 23 -210 35 -327 26 -107 -9 -258 -51 -285
-81 -8 -9 -23 -19 -32 -23 -10 -3 -18 -11 -18 -17 0 -6 -9 -20 -20 -32 -11
-12 -20 -29 -20 -38 0 -8 -6 -24 -13 -35 -8 -11 -24 -60 -36 -110 -12 -49 -30
-106 -39 -125 -26 -56 -95 -141 -158 -195 -135 -113 -176 -172 -194 -278 -11
-61 -10 -76 17 -237 3 -19 11 -38 17 -42 7 -5 6 -8 -4 -8 -12 0 -12 -2 -2 -9
10 -6 14 -41 15 -135 2 -111 4 -127 19 -132 10 -3 18 -9 18 -13 0 -26 124 -43
147 -20 7 7 31 12 55 13 24 1 50 6 58 11 19 12 23 13 100 26 345 55 383 69
496 178 53 50 93 168 64 186 -6 4 -8 11 -5 16 4 5 0 9 -7 9 -9 0 -9 3 2 10 13
8 12 10 -4 10 -11 0 -17 3 -13 6 12 13 -16 63 -41 72 -49 19 -132 32 -202 32
-40 0 -70 4 -70 10 0 6 -7 10 -16 10 -8 0 -12 4 -9 10 3 6 -4 10 -17 10 -18 0
-20 2 -8 10 12 8 11 10 -6 10 -16 0 -23 8 -28 31 -12 62 -7 86 29 127 50 56
80 59 230 26 17 -3 73 -27 125 -51 84 -40 105 -46 176 -49 85 -4 90 -2 152 56
34 32 52 64 52 92 0 12 6 29 13 37 7 9 22 36 32 61 10 25 25 52 32 61 7 8 13
21 13 28 0 6 7 14 15 17 8 3 17 14 20 24 3 10 17 21 31 24 14 4 22 10 20 15
-8 13 37 22 48 11 6 -6 25 -10 44 -10 28 0 33 -3 28 -17 -6 -14 -4 -14 14 2
17 16 24 17 40 7 11 -7 39 -12 63 -12 35 0 57 -9 115 -47 39 -26 69 -50 66
-55 -3 -4 2 -5 10 -2 9 3 16 1 16 -5 0 -6 6 -11 14 -11 7 0 20 -7 27 -17 8 -9
97 -56 199 -105 283 -137 289 -140 335 -180 46 -41 65 -93 65 -179 0 -22 5
-49 11 -61 6 -11 15 -50 20 -86 13 -94 29 -139 56 -167 24 -23 211 -135 227
-135 4 0 21 -9 36 -20 16 -11 51 -28 79 -37 28 -9 51 -20 51 -25 0 -4 4 -8 10
-8 5 0 41 -19 80 -42 67 -40 72 -46 110 -125 39 -81 40 -87 40 -187 0 -156 1
-158 106 -266 66 -68 104 -118 134 -174 l42 -79 -4 -133 c-2 -73 0 -128 4
-121 5 8 8 4 8 -10 0 -13 -4 -23 -9 -23 -5 0 -12 -11 -15 -25 -4 -14 -11 -25
-16 -25 -6 0 -10 -7 -10 -15 0 -8 -4 -15 -10 -15 -5 0 -7 -7 -3 -16 6 -17 -33
-64 -54 -64 -7 0 -13 -6 -13 -12 -1 -17 -65 -88 -79 -88 -7 0 -21 -9 -32 -19
-11 -10 -37 -22 -57 -25 -87 -15 -145 -18 -151 -9 -3 5 -41 18 -83 28 -43 10
-78 23 -78 28 0 5 -7 7 -15 3 -8 -3 -30 1 -50 9 -19 9 -38 14 -42 13 -5 0 -19
3 -33 9 -36 15 -169 35 -190 28 -34 -11 -199 70 -262 128 -105 96 -260 190
-360 218 -23 6 -61 20 -83 29 -86 38 -89 38 -168 42 -32 1 -61 6 -64 10 -5 9
-68 -67 -99 -119 -10 -18 -26 -33 -36 -33 -10 0 -18 -4 -18 -9 0 -4 -12 -20
-27 -35 -14 -14 -23 -29 -20 -33 4 -3 -13 -28 -38 -54 -25 -27 -45 -54 -45
-60 0 -7 -3 -10 -6 -6 -9 9 -43 -25 -37 -39 2 -7 -2 -23 -10 -36 -16 -25 -29
-128 -17 -128 4 0 11 -11 14 -24 7 -29 102 -136 121 -136 7 0 29 -18 48 -39
46 -51 57 -102 32 -148 -10 -18 -21 -33 -25 -33 -4 0 -10 -8 -12 -17 -7 -27
-84 -63 -132 -63 -31 0 -52 8 -78 28 -50 38 -88 86 -88 112 0 12 -4 18 -11 15
-6 -4 -9 -1 -7 6 4 21 -43 132 -65 151 -11 10 -17 18 -13 18 4 0 -7 15 -26 33
-64 64 -73 80 -73 127 0 55 12 90 30 90 15 0 65 46 65 60 0 5 12 18 28 30 15
12 32 31 39 43 15 27 17 167 3 167 -5 0 -10 6 -10 13 0 17 -57 71 -97 91 -18
9 -45 16 -62 16 -16 0 -32 4 -35 9 -3 4 -40 11 -83 14 -101 7 -186 36 -229 78
-19 18 -34 37 -34 41 0 5 -12 22 -27 39 -16 18 -27 40 -25 51 2 12 -2 24 -8
28 -7 4 -14 25 -15 46 -4 61 -21 88 -65 102 -52 16 -83 15 -127 -3 -41 -17
-183 -120 -196 -142 -5 -7 -12 -11 -18 -8 -5 4 -12 -1 -15 -9 -3 -8 -25 -26
-49 -40 -35 -21 -48 -24 -74 -16 -18 5 -38 7 -44 4 -7 -2 -31 11 -52 29 -22
18 -55 40 -72 48 -18 8 -33 17 -33 21 0 13 -71 30 -128 31 -92 2 -133 -19
-203 -103 -30 -35 -91 -184 -105 -254 -2 -11 -7 -22 -11 -25 -5 -3 -21 -32
-37 -64 -16 -33 -35 -61 -43 -64 -7 -3 -13 -10 -13 -17 0 -25 -117 -82 -207
-101 -19 -4 -44 -20 -59 -38 -47 -56 -148 -161 -179 -185 -17 -13 -46 -38 -66
-55 -36 -33 -63 -52 -89 -64 -8 -4 -24 -15 -35 -25 -11 -10 -31 -21 -45 -25
-14 -3 -38 -18 -55 -33 -16 -14 -55 -44 -85 -66 -30 -21 -62 -46 -70 -54 -9
-8 -35 -31 -59 -50 -59 -48 -80 -66 -121 -104 -19 -17 -55 -47 -80 -66 -25
-19 -52 -42 -60 -50 -8 -8 -44 -40 -80 -70 -81 -68 -179 -169 -231 -237 -34
-43 -74 -129 -97 -207 -5 -19 -26 -49 -47 -67 -45 -41 -73 -59 -90 -59 -11 0
-42 -7 -69 -15 -66 -20 -159 -19 -199 1 -18 10 -60 45 -94 80 -86 87 -111 99
-208 98 -85 -1 -132 -18 -186 -66 -30 -28 -84 -104 -93 -135 -4 -11 -13 -24
-21 -27 -8 -3 -15 -12 -15 -19 0 -8 -14 -27 -32 -43 -104 -95 -143 -143 -180
-221 -51 -108 -56 -140 -29 -195 27 -57 71 -85 164 -105 67 -14 90 -15 189 -4
118 14 129 13 242 -14 44 -10 84 -14 110 -9 42 7 127 46 158 72 17 14 58 8 58
-9 0 -5 9 -9 21 -9 11 0 18 -4 15 -9 -8 -12 74 -85 123 -110 49 -26 240 -60
371 -68 98 -5 120 -2 435 62 144 29 226 27 340 -9 85 -27 151 -39 310 -56 55
-7 141 -21 190 -33 78 -18 123 -21 345 -21 140 -1 330 0 421 2 162 3 170 2
305 -32 247 -62 714 -95 935 -66 47 6 283 12 529 14 495 3 537 7 645 63 177
92 202 101 330 128 154 31 204 51 250 101 43 45 55 86 55 189 0 44 4 85 8 91
12 18 49 34 79 34 41 0 104 -70 143 -158 14 -33 59 -93 89 -120 75 -67 150
-104 306 -152 53 -16 84 -43 134 -117 23 -34 62 -78 87 -97 56 -43 184 -90
329 -121 61 -13 135 -31 165 -39 30 -9 105 -23 165 -32 61 -8 125 -23 143 -31
39 -18 50 -54 32 -97 -38 -92 -14 -146 66 -146 36 0 51 6 80 33 19 17 36 39
38 47 10 52 22 72 50 88 28 15 71 17 411 17 372 1 383 1 520 28 77 15 192 34
255 42 63 8 135 20 160 25 66 14 94 18 210 25 58 4 116 8 130 10 139 21 254
28 545 32 187 2 374 5 415 5 51 1 95 -5 140 -19 36 -12 97 -29 135 -38 39 -8
79 -18 90 -20 30 -8 605 -34 645 -30 19 2 87 6 150 10 262 14 409 38 567 91
98 33 176 34 255 4 57 -21 88 -49 88 -80 0 -29 -66 -94 -125 -124 -45 -23 -84
-32 -174 -42 -64 -8 -174 -22 -246 -33 -71 -11 -197 -25 -280 -31 -82 -6 -202
-18 -265 -26 -106 -13 -808 -52 -1065 -59 -81 -2 -145 -11 -243 -34 -156 -37
-358 -53 -607 -47 -188 4 -345 -6 -545 -35 -189 -27 -199 -28 -440 -38 -230
-10 -221 -7 -364 -105 -38 -26 -106 -66 -150 -88 -104 -52 -139 -79 -160 -122
-26 -55 -14 -81 65 -131 42 -27 84 -65 110 -100 23 -31 51 -61 61 -66 11 -6
28 -24 38 -41 19 -31 19 -32 -1 -59 -24 -34 -99 -63 -225 -89 -104 -21 -123
-29 -190 -85 -120 -100 -128 -121 -64 -170 36 -28 65 -76 53 -89 -3 -3 0 -19
7 -35 10 -25 23 -34 78 -51 37 -12 101 -25 142 -29 42 -5 85 -13 95 -18 11 -6
64 -13 118 -16 53 -4 107 -12 119 -18 12 -6 83 -16 157 -21 239 -15 261 -17
281 -28 10 -5 46 -10 80 -10 34 0 71 -5 83 -11 12 -7 57 -16 102 -20 100 -10
214 -25 326 -44 47 -8 117 -15 155 -15 38 0 96 -5 129 -11 33 -5 111 -10 173
-10 71 0 128 -5 155 -14 71 -23 158 -35 262 -34 55 0 124 -4 154 -10 29 -6 83
-11 119 -11 98 0 290 -38 297 -59 5 -17 59 -54 66 -46 3 2 36 -1 74 -6 39 -6
135 -10 215 -10 129 0 150 -3 190 -22 36 -17 45 -27 45 -47 0 -22 -5 -26 -45
-31 -69 -9 -96 -24 -110 -61 -7 -18 -20 -39 -28 -46 -13 -10 1264 -12 6391
-12 l6407 0 0 9020 0 9020 -20455 0 -20455 0 0 -4375z m31960 -1402 c123 -26
185 -65 247 -155 28 -39 37 -68 58 -180 33 -181 44 -281 32 -290 -9 -5 -13
-23 -16 -65 -1 -7 -8 -13 -16 -13 -8 0 -15 -4 -15 -8 0 -15 -53 -72 -67 -72
-7 0 -17 -8 -20 -17 -9 -24 -51 -63 -67 -63 -8 0 -16 -9 -19 -20 -3 -13 -14
-20 -29 -20 -12 0 -38 -9 -57 -21 -23 -14 -59 -23 -109 -26 -74 -6 -97 0 -162
38 -8 5 -24 13 -36 18 -11 5 -44 38 -73 74 -29 36 -69 73 -89 83 -20 11 -38
22 -40 27 -2 4 -9 7 -16 7 -17 0 -46 37 -46 60 0 14 -7 20 -22 20 -14 0 -31
11 -42 28 -11 16 -32 37 -47 48 -15 10 -26 21 -23 25 5 9 -21 30 -29 23 -9 -9
-20 43 -14 66 3 11 1 23 -5 26 -5 3 -8 15 -5 25 3 11 2 19 -3 19 -4 0 -5 15
-1 33 12 52 34 107 44 107 4 0 6 4 3 8 -8 13 25 72 40 72 7 0 23 14 36 30 12
17 29 30 38 30 9 0 26 9 38 20 12 11 27 20 34 20 21 0 84 24 101 38 38 32 256
35 397 5z m-766 -668 c8 -8 21 -15 29 -15 17 0 43 -28 34 -36 -3 -3 1 -21 9
-39 16 -40 18 -85 4 -85 -5 0 -10 -9 -10 -20 0 -11 -6 -20 -12 -20 -9 0 -8 -4
2 -10 13 -8 12 -10 -4 -10 -11 0 -17 -3 -13 -6 10 -10 -15 -28 -71 -52 -76
-33 -172 -34 -234 -3 -27 12 -48 29 -48 36 0 7 -12 17 -26 22 -23 8 -27 15
-28 53 -1 51 19 82 71 107 18 8 33 20 33 27 0 15 121 56 162 54 29 -1 28 -2
-12 -8 l-45 -7 42 -1 c26 -1 47 4 55 13 17 19 43 19 62 0z m-7841 -2152 c-7
-2 -19 -2 -25 0 -7 3 -2 5 12 5 14 0 19 -2 13 -5z m2290 0 c-24 -2 -62 -2 -85
0 -24 2 -5 4 42 4 47 0 66 -2 43 -4z m657 -2145 c22 -23 40 -50 40 -59 0 -10
5 -21 10 -24 18 -11 10 -98 -14 -145 -26 -52 -99 -108 -222 -170 -44 -22 -102
-54 -129 -72 -33 -22 -63 -33 -99 -36 -47 -4 -53 -2 -78 27 -34 38 -37 100
-10 176 19 53 76 138 112 168 22 18 143 97 170 111 8 4 40 20 70 36 77 41 101
39 150 -12z m-2098 -2162 c48 -3 97 -11 109 -18 32 -19 59 -46 59 -60 0 -56
-141 -162 -263 -198 -40 -12 -83 -26 -97 -31 -33 -12 -146 -29 -237 -36 -53
-4 -86 -1 -125 11 -114 37 -125 47 -131 119 -1 15 -9 32 -17 37 -11 7 -12 12
-3 21 6 6 9 18 6 25 -4 10 3 14 21 14 15 0 29 7 32 15 6 16 59 45 81 45 8 0
27 7 44 15 44 23 293 54 389 48 25 -1 84 -5 132 -7z m-728 -165 c3 -5 0 -11
-8 -14 -15 -6 -26 1 -26 15 0 11 27 10 34 -1z m126 -436 c15 -9 19 -15 10 -15
-8 0 1 -9 21 -19 20 -10 51 -33 70 -51 19 -18 54 -49 79 -69 66 -53 119 -100
172 -153 70 -70 78 -145 18 -188 -40 -29 -142 -30 -197 -2 -48 25 -148 120
-157 150 -4 12 -11 22 -15 22 -26 0 -88 168 -89 243 -1 26 -4 52 -7 57 -4 6
-1 10 4 10 6 0 11 -9 11 -20 0 -11 5 -20 10 -20 6 0 10 9 10 21 0 13 8 23 21
26 16 4 17 8 7 14 -22 15 6 9 32 -6z"/>
<path d="M34600 12910 c0 -5 -9 -10 -20 -10 -11 0 -20 -6 -20 -14 0 -7 -9 -20
-19 -27 -30 -22 -34 -53 -11 -80 14 -16 23 -20 26 -12 4 8 13 9 30 3 30 -12
52 -4 87 32 32 33 34 49 7 68 -11 8 -20 22 -20 32 0 13 -8 18 -30 18 -16 0
-30 -4 -30 -10z"/>
<path d="M34560 12750 c0 -5 9 -10 20 -10 11 0 20 5 20 10 0 6 -9 10 -20 10
-11 0 -20 -4 -20 -10z"/>
<path d="M36498 12703 c12 -2 32 -2 45 0 12 2 2 4 -23 4 -25 0 -35 -2 -22 -4z"/>
<path d="M34790 11710 c-8 -5 -38 -10 -67 -10 -52 0 -123 -25 -123 -43 0 -5
-14 -22 -31 -38 -37 -35 -49 -93 -25 -124 10 -13 15 -15 16 -7 0 13 11 6 77
-48 17 -14 54 -12 87 5 15 8 37 15 47 15 10 0 21 5 24 10 3 6 13 10 22 10 9 0
24 10 34 22 20 23 20 23 24 53 1 11 5 30 9 41 4 14 1 27 -9 37 -8 9 -15 20
-15 24 0 5 -12 21 -28 36 -20 19 -31 24 -42 17z"/>
<path d="M34051 10882 c-6 -11 -7 -22 -3 -26 3 -4 0 -11 -8 -16 -11 -7 -8 -10
13 -15 15 -4 27 -13 27 -21 0 -8 8 -14 18 -14 10 0 27 -7 39 -15 12 -8 50 -17
85 -20 35 -2 53 -2 41 1 -37 9 -26 24 16 24 35 0 68 -19 56 -32 -9 -9 17 -68
30 -68 7 0 23 -13 36 -30 13 -16 29 -30 36 -30 6 0 13 -3 15 -7 4 -11 75 -43
93 -43 9 0 15 -10 15 -24 0 -18 7 -25 31 -30 46 -9 49 -8 49 13 0 11 6 21 12
23 9 3 13 29 14 77 1 61 -2 74 -19 86 -17 12 -22 12 -34 -1 -17 -16 -33 -18
-33 -4 0 6 -11 10 -24 10 -15 0 -27 7 -30 18 -3 10 -27 27 -52 37 -26 11 -41
21 -35 23 9 3 7 10 -5 23 -14 15 -31 19 -85 19 -37 0 -71 5 -74 10 -3 6 -13
10 -22 10 -9 0 -24 6 -32 14 -9 7 -48 17 -88 20 -64 6 -73 5 -82 -12z"/>
<path d="M19633 9393 c9 -2 25 -2 35 0 9 3 1 5 -18 5 -19 0 -27 -2 -17 -5z"/>
<path d="M6358 9293 c23 -2 61 -2 85 0 23 2 4 4 -43 4 -47 0 -66 -2 -42 -4z"/>
<path d="M21528 7593 c7 -3 16 -2 19 1 4 3 -2 6 -13 5 -11 0 -14 -3 -6 -6z"/>
</g>
</svg>
