<svg xmlns="http://www.w3.org/2000/svg" viewBox="0 0 1707 898" preserveAspectRatio="xMidYMid" width="1707" height="898" xmlns:xlink="http://www.w3.org/1999/xlink" style="shape-rendering:auto;display:block;background-position-x:0%;background-position-y:0%;background-size:auto;background-origin:padding-box;background-clip:border-box;background:scroll rgb(255, 235, 189) none  repeat;width:1707px;height:898px;;animation:none"><g><defs><filter height="3" width="3" y="-1" x="-1" id="blur-3vvd53w6y3j-1"><feGaussianBlur stdDeviation="3"></feGaussianBlur></filter>
<filter height="3" width="3" y="-1" x="-1" id="blur-3vvd53w6y3j-2"><feGaussianBlur stdDeviation="1.5"></feGaussianBlur></filter>
<filter height="3" width="3" y="-1" x="-1" id="blur-3vvd53w6y3j-3"><feGaussianBlur stdDeviation="1"></feGaussianBlur></filter></defs>
<circle fill="#fe0d02" r="0" transform="matrix(1,0,0,1,754.3682861328125,628.9616088867188)" cy="0" cx="0" fill-opacity="0" style="fill:rgb(254, 13, 2);transform:matrix(1, 0, 0, 1, 754.368, 628.962);;animation:none"></circle>
<circle fill="#feb200" r="0" transform="matrix(1,0,0,1,762.372802734375,846.25830078125)" cy="0" cx="0" fill-opacity="0" style="fill:rgb(254, 178, 0);transform:matrix(1, 0, 0, 1, 762.373, 846.258);;animation:none"></circle>
<circle fill="#043b42" r="9.928356170654297" transform="matrix(1,0,0,1,798.3057250976562,431.3277282714844)" cy="0" cx="0" fill-opacity="0.926048" style="fill:rgb(4, 59, 66);transform:matrix(1, 0, 0, 1, 798.306, 431.328);;animation:none"></circle>
<circle fill="#fe0d02" r="0" transform="matrix(1,0,0,1,165.4866180419922,-127.91796875)" cy="0" cx="0" fill-opacity="0" style="fill:rgb(254, 13, 2);transform:matrix(1, 0, 0, 1, 165.487, -127.918);;animation:none"></circle>
<circle fill="#feb200" r="0" transform="matrix(1,0,0,1,1194.0439453125,-6.039955139160156)" cy="0" cx="0" fill-opacity="0" style="fill:rgb(254, 178, 0);transform:matrix(1, 0, 0, 1, 1194.04, -6.03996);;animation:none"></circle>
<circle fill="#043b42" r="8.48151683807373" transform="matrix(1,0,0,1,441.48016357421875,444.92999267578125)" cy="0" cx="0" fill-opacity="0.702406" style="fill:rgb(4, 59, 66);transform:matrix(1, 0, 0, 1, 441.48, 444.93);;animation:none"></circle>
<circle fill="#fe0d02" r="0" transform="matrix(1,0,0,1,408.9188537597656,1013.3989868164062)" cy="0" cx="0" fill-opacity="0" style="fill:rgb(254, 13, 2);transform:matrix(1, 0, 0, 1, 408.919, 1013.4);;animation:none"></circle>
<circle fill="#feb200" r="1.764237403869629" transform="matrix(1,0,0,1,493.9347229003906,326.07440185546875)" cy="0" cx="0" fill-opacity="0.350291" style="fill:rgb(254, 178, 0);transform:matrix(1, 0, 0, 1, 493.935, 326.074);;animation:none"></circle>
<circle fill="#043b42" r="10.676153182983398" transform="matrix(1,0,0,1,-34.943599700927734,564.945556640625)" cy="0" cx="0" fill-opacity="0.630087" style="fill:rgb(4, 59, 66);transform:matrix(1, 0, 0, 1, -34.9436, 564.946);;animation:none"></circle>
<circle fill="#fe0d02" r="5.872074127197266" transform="matrix(1,0,0,1,1445.1021728515625,779.504150390625)" cy="0" cx="0" fill-opacity="0.756741" style="fill:rgb(254, 13, 2);transform:matrix(1, 0, 0, 1, 1445.1, 779.504);;animation:none"></circle>
<circle fill="#feb200" r="10.845995903015137" transform="matrix(1,0,0,1,316.41497802734375,555.3987426757812)" cy="0" cx="0" fill-opacity="0.883278" style="fill:rgb(254, 178, 0);transform:matrix(1, 0, 0, 1, 316.415, 555.399);;animation:none"></circle>
<circle fill="#043b42" r="0" transform="matrix(1,0,0,1,1637.854248046875,734.9243774414062)" cy="0" cx="0" fill-opacity="0" style="fill:rgb(4, 59, 66);transform:matrix(1, 0, 0, 1, 1637.85, 734.924);;animation:none"></circle>
<circle fill="#fe0d02" r="5.865258693695068" transform="matrix(1,0,0,1,437.2831726074219,655.2908325195312)" cy="0" cx="0" fill-opacity="0.543627" style="fill:rgb(254, 13, 2);transform:matrix(1, 0, 0, 1, 437.283, 655.291);;animation:none"></circle>
<circle fill="#feb200" r="0.16203095018863678" transform="matrix(1,0,0,1,374.76202392578125,475.4583435058594)" cy="0" cx="0" fill-opacity="0.009418" style="fill:rgb(254, 178, 0);transform:matrix(1, 0, 0, 1, 374.762, 475.458);;animation:none"></circle>
<circle fill="#043b42" r="3.0248470306396484" transform="matrix(1,0,0,1,694.9546508789062,721.2946166992188)" cy="0" cx="0" fill-opacity="0.806458" style="fill:rgb(4, 59, 66);transform:matrix(1, 0, 0, 1, 694.955, 721.295);;animation:none"></circle>
<circle fill="#fe0d02" r="3.367278575897217" transform="matrix(1,0,0,1,443.00616455078125,120.23751068115234)" cy="0" cx="0" fill-opacity="0.564934" style="fill:rgb(254, 13, 2);transform:matrix(1, 0, 0, 1, 443.006, 120.238);;animation:none"></circle>
<circle fill="#feb200" r="5.855726718902588" transform="matrix(1,0,0,1,307.75225830078125,482.6947326660156)" cy="0" cx="0" fill-opacity="0.351663" style="fill:rgb(254, 178, 0);transform:matrix(1, 0, 0, 1, 307.752, 482.695);;animation:none"></circle>
<circle fill="#043b42" r="0" transform="matrix(1,0,0,1,928.447265625,502.6972351074219)" cy="0" cx="0" fill-opacity="0" style="fill:rgb(4, 59, 66);transform:matrix(1, 0, 0, 1, 928.447, 502.697);;animation:none"></circle>
<circle fill="#fe0d02" r="3.8579959869384766" transform="matrix(1,0,0,1,616.3347778320312,620.0084228515625)" cy="0" cx="0" fill-opacity="0.442139" style="fill:rgb(254, 13, 2);transform:matrix(1, 0, 0, 1, 616.335, 620.008);;animation:none"></circle>
<circle fill="#feb200" r="2.057305335998535" transform="matrix(1,0,0,1,521.168212890625,442.5838928222656)" cy="0" cx="0" fill-opacity="0.173424" style="fill:rgb(254, 178, 0);transform:matrix(1, 0, 0, 1, 521.168, 442.584);;animation:none"></circle>
<circle fill="#043b42" r="0" transform="matrix(1,0,0,1,700.6810302734375,374.8260498046875)" cy="0" cx="0" fill-opacity="0" style="fill:rgb(4, 59, 66);transform:matrix(1, 0, 0, 1, 700.681, 374.826);;animation:none"></circle>
<circle fill="#fe0d02" r="0" transform="matrix(1,0,0,1,1220.3538818359375,296.1046447753906)" cy="0" cx="0" fill-opacity="0" style="fill:rgb(254, 13, 2);transform:matrix(1, 0, 0, 1, 1220.35, 296.105);;animation:none"></circle>
<circle fill="#feb200" r="11.091462135314941" transform="matrix(1,0,0,1,1087.4761962890625,409.4951171875)" cy="0" cx="0" fill-opacity="0.82626" style="fill:rgb(254, 178, 0);transform:matrix(1, 0, 0, 1, 1087.48, 409.495);;animation:none"></circle>
<circle fill="#043b42" r="0" transform="matrix(1,0,0,1,-156.37969970703125,354.9043884277344)" cy="0" cx="0" fill-opacity="0" style="fill:rgb(4, 59, 66);transform:matrix(1, 0, 0, 1, -156.38, 354.904);;animation:none"></circle>
<circle fill="#fe0d02" r="3.705477714538574" transform="matrix(1,0,0,1,1297.1961669921875,727.8502197265625)" cy="0" cx="0" fill-opacity="0.355946" style="fill:rgb(254, 13, 2);transform:matrix(1, 0, 0, 1, 1297.2, 727.85);;animation:none"></circle>
<circle fill="#feb200" r="1.0014901161193848" transform="matrix(1,0,0,1,1600.8751220703125,140.2025604248047)" cy="0" cx="0" fill-opacity="0.204356" style="fill:rgb(254, 178, 0);transform:matrix(1, 0, 0, 1, 1600.88, 140.203);;animation:none"></circle>
<circle fill="#043b42" r="13.975481986999512" transform="matrix(1,0,0,1,900.81689453125,492.4442138671875)" cy="0" cx="0" fill-opacity="0.921792" style="fill:rgb(4, 59, 66);transform:matrix(1, 0, 0, 1, 900.817, 492.444);;animation:none"></circle>
<circle fill="#fe0d02" r="0" transform="matrix(1,0,0,1,628.2230224609375,823.6866455078125)" cy="0" cx="0" fill-opacity="0" style="fill:rgb(254, 13, 2);transform:matrix(1, 0, 0, 1, 628.223, 823.687);;animation:none"></circle>
<circle fill="#feb200" r="0" transform="matrix(1,0,0,1,1021.4973754882812,588.408447265625)" cy="0" cx="0" fill-opacity="0" style="fill:rgb(254, 178, 0);transform:matrix(1, 0, 0, 1, 1021.5, 588.408);;animation:none"></circle>
<circle fill="#043b42" r="0.5106840133666992" transform="matrix(1,0,0,1,738.9598388671875,634.1055908203125)" cy="0" cx="0" fill-opacity="0.0335823" style="fill:rgb(4, 59, 66);transform:matrix(1, 0, 0, 1, 738.96, 634.106);;animation:none"></circle>
<circle fill="#fe0d02" r="17.15308380126953" transform="matrix(1,0,0,1,1048.9071044921875,897.4196166992188)" cy="0" cx="0" fill-opacity="0.831103" style="fill:rgb(254, 13, 2);transform:matrix(1, 0, 0, 1, 1048.91, 897.42);;animation:none"></circle>
<circle fill="#feb200" r="2.8965206146240234" transform="matrix(1,0,0,1,755.03564453125,973.389892578125)" cy="0" cx="0" fill-opacity="0.242867" style="fill:rgb(254, 178, 0);transform:matrix(1, 0, 0, 1, 755.036, 973.39);;animation:none"></circle>
<circle fill="#043b42" r="0.8695716857910156" transform="matrix(1,0,0,1,838.5155029296875,878.240478515625)" cy="0" cx="0" fill-opacity="0.176822" style="fill:rgb(4, 59, 66);transform:matrix(1, 0, 0, 1, 838.515, 878.241);;animation:none"></circle>
<circle fill="#fe0d02" r="0.41689252853393555" transform="matrix(1,0,0,1,447.26568603515625,597.0036010742188)" cy="0" cx="0" fill-opacity="0.10155" style="fill:rgb(254, 13, 2);transform:matrix(1, 0, 0, 1, 447.266, 597.004);;animation:none"></circle>
<circle fill="#feb200" r="0.6744894981384277" transform="matrix(1,0,0,1,670.1320190429688,500.51556396484375)" cy="0" cx="0" fill-opacity="0.16496" style="fill:rgb(254, 178, 0);transform:matrix(1, 0, 0, 1, 670.132, 500.516);;animation:none"></circle>
<circle fill="#043b42" r="2.573453903198242" transform="matrix(1,0,0,1,1015.0570678710938,608.6712036132812)" cy="0" cx="0" fill-opacity="0.253917" style="fill:rgb(4, 59, 66);transform:matrix(1, 0, 0, 1, 1015.06, 608.671);;animation:none"></circle>
<circle fill="#fe0d02" r="0" transform="matrix(1,0,0,1,1487.197021484375,335.3968811035156)" cy="0" cx="0" fill-opacity="0" style="fill:rgb(254, 13, 2);transform:matrix(1, 0, 0, 1, 1487.2, 335.397);;animation:none"></circle>
<circle fill="#feb200" r="2.89986515045166" transform="matrix(1,0,0,1,1403.31298828125,638.2987670898438)" cy="0" cx="0" fill-opacity="0.759395" style="fill:rgb(254, 178, 0);transform:matrix(1, 0, 0, 1, 1403.31, 638.299);;animation:none"></circle>
<circle fill="#043b42" r="2.994049549102783" transform="matrix(1,0,0,1,687.6067504882812,690.1235961914062)" cy="0" cx="0" fill-opacity="0.675075" style="fill:rgb(4, 59, 66);transform:matrix(1, 0, 0, 1, 687.607, 690.124);;animation:none"></circle>
<circle fill="#fe0d02" r="8.061798095703125" transform="matrix(1,0,0,1,1102.8533935546875,613.6834106445312)" cy="0" cx="0" fill-opacity="0.604111" style="fill:rgb(254, 13, 2);transform:matrix(1, 0, 0, 1, 1102.85, 613.683);;animation:none"></circle>
<circle fill="#feb200" r="8.511123657226562" transform="matrix(1,0,0,1,639.2914428710938,861.9873046875)" cy="0" cx="0" fill-opacity="0.720693" style="fill:rgb(254, 178, 0);transform:matrix(1, 0, 0, 1, 639.291, 861.987);;animation:none"></circle>
<circle fill="#043b42" r="12.13518238067627" transform="matrix(1,0,0,1,1597.4322509765625,213.73251342773438)" cy="0" cx="0" fill-opacity="0.987428" style="fill:rgb(4, 59, 66);transform:matrix(1, 0, 0, 1, 1597.43, 213.733);;animation:none"></circle>
<circle fill="#fe0d02" r="5.709283351898193" transform="matrix(1,0,0,1,117.09646606445312,607.4314575195312)" cy="0" cx="0" fill-opacity="0.19437" style="fill:rgb(254, 13, 2);transform:matrix(1, 0, 0, 1, 117.096, 607.431);;animation:none"></circle>
<circle fill="#feb200" r="0.49931764602661133" transform="matrix(1,0,0,1,793.3632202148438,-101.796630859375)" cy="0" cx="0" fill-opacity="0.0644447" style="fill:rgb(254, 178, 0);transform:matrix(1, 0, 0, 1, 793.363, -101.797);;animation:none"></circle>
<circle fill="#043b42" r="13.383469581604004" transform="matrix(1,0,0,1,1074.128662109375,241.15615844726562)" cy="0" cx="0" fill-opacity="0.980218" style="fill:rgb(4, 59, 66);transform:matrix(1, 0, 0, 1, 1074.13, 241.156);;animation:none"></circle>
<circle fill="#fe0d02" r="3.112180471420288" transform="matrix(1,0,0,1,1511.42919921875,811.7095947265625)" cy="0" cx="0" fill-opacity="0.510259" style="fill:rgb(254, 13, 2);transform:matrix(1, 0, 0, 1, 1511.43, 811.71);;animation:none"></circle>
<circle fill="#feb200" r="10.130668640136719" transform="matrix(1,0,0,1,1102.5606689453125,474.2613220214844)" cy="0" cx="0" fill-opacity="0.959899" style="fill:rgb(254, 178, 0);transform:matrix(1, 0, 0, 1, 1102.56, 474.261);;animation:none"></circle>
<circle fill="#043b42" r="2.417774200439453" transform="matrix(1,0,0,1,1221.0677490234375,559.6248779296875)" cy="0" cx="0" fill-opacity="0.21688" style="fill:rgb(4, 59, 66);transform:matrix(1, 0, 0, 1, 1221.07, 559.625);;animation:none"></circle>
<circle fill="#fe0d02" r="0" transform="matrix(1,0,0,1,393.25830078125,493.2294921875)" cy="0" cx="0" fill-opacity="0" style="fill:rgb(254, 13, 2);transform:matrix(1, 0, 0, 1, 393.258, 493.23);;animation:none"></circle>
<circle fill="#feb200" r="3.8051369190216064" transform="matrix(1,0,0,1,673.234130859375,16.502986907958984)" cy="0" cx="0" fill-opacity="0.865712" style="fill:rgb(254, 178, 0);transform:matrix(1, 0, 0, 1, 673.234, 16.503);;animation:none"></circle>
<circle fill="#043b42" r="0" transform="matrix(1,0,0,1,1210.5562744140625,951.3052978515625)" cy="0" cx="0" fill-opacity="0" style="fill:rgb(4, 59, 66);transform:matrix(1, 0, 0, 1, 1210.56, 951.305);;animation:none"></circle>
<circle fill="#fe0d02" r="0" transform="matrix(1,0,0,1,1296.59716796875,506.55352783203125)" cy="0" cx="0" fill-opacity="0" style="fill:rgb(254, 13, 2);transform:matrix(1, 0, 0, 1, 1296.6, 506.554);;animation:none"></circle>
<circle fill="#feb200" r="1.509029746055603" transform="matrix(1,0,0,1,625.2030639648438,503.53076171875)" cy="0" cx="0" fill-opacity="0.088709" style="fill:rgb(254, 178, 0);transform:matrix(1, 0, 0, 1, 625.203, 503.531);;animation:none"></circle>
<circle fill="#043b42" r="0" transform="matrix(1,0,0,1,426.1086120605469,727.0992431640625)" cy="0" cx="0" fill-opacity="0" style="fill:rgb(4, 59, 66);transform:matrix(1, 0, 0, 1, 426.109, 727.099);;animation:none"></circle>
<circle fill="#fe0d02" r="1.7444133758544922" transform="matrix(1,0,0,1,388.4045104980469,498.4720458984375)" cy="0" cx="0" fill-opacity="0.182518" style="fill:rgb(254, 13, 2);transform:matrix(1, 0, 0, 1, 388.405, 498.472);;animation:none"></circle>
<circle fill="#feb200" r="2.948176622390747" transform="matrix(1,0,0,1,154.31851196289062,644.6287231445312)" cy="0" cx="0" fill-opacity="0.540319" style="fill:rgb(254, 178, 0);transform:matrix(1, 0, 0, 1, 154.319, 644.629);;animation:none"></circle>
<circle fill="#043b42" r="0.340362548828125" transform="matrix(1,0,0,1,435.8952331542969,686.2245483398438)" cy="0" cx="0" fill-opacity="0.0331815" style="fill:rgb(4, 59, 66);transform:matrix(1, 0, 0, 1, 435.895, 686.225);;animation:none"></circle>
<circle fill="#fe0d02" r="2.6523232460021973" transform="matrix(1,0,0,1,1068.6405029296875,797.6160888671875)" cy="0" cx="0" fill-opacity="0.611618" style="fill:rgb(254, 13, 2);transform:matrix(1, 0, 0, 1, 1068.64, 797.616);;animation:none"></circle>
<circle fill="#feb200" r="1.3117446899414062" transform="matrix(1,0,0,1,1349.3726806640625,319.6017761230469)" cy="0" cx="0" fill-opacity="0.22215" style="fill:rgb(254, 178, 0);transform:matrix(1, 0, 0, 1, 1349.37, 319.602);;animation:none"></circle>
<circle fill="#043b42" r="5.117001533508301" transform="matrix(1,0,0,1,1581.5390625,-37.365055084228516)" cy="0" cx="0" fill-opacity="0.52299" style="fill:rgb(4, 59, 66);transform:matrix(1, 0, 0, 1, 1581.54, -37.3651);;animation:none"></circle>
<circle fill="#fe0d02" r="0" transform="matrix(1,0,0,1,305.65374755859375,313.07122802734375)" cy="0" cx="0" fill-opacity="0" style="fill:rgb(254, 13, 2);transform:matrix(1, 0, 0, 1, 305.654, 313.071);;animation:none"></circle>
<circle fill="#feb200" r="0.907012939453125" transform="matrix(1,0,0,1,1057.1827392578125,740.2879638671875)" cy="0" cx="0" fill-opacity="0.0550778" style="fill:rgb(254, 178, 0);transform:matrix(1, 0, 0, 1, 1057.18, 740.288);;animation:none"></circle>
<circle fill="#043b42" r="2.791576385498047" transform="matrix(1,0,0,1,760.3630981445312,-24.698925018310547)" cy="0" cx="0" fill-opacity="0.183556" style="fill:rgb(4, 59, 66);transform:matrix(1, 0, 0, 1, 760.363, -24.6989);;animation:none"></circle>
<circle fill="#fe0d02" r="7.9756693840026855" transform="matrix(1,0,0,1,-53.53784942626953,474.1859130859375)" cy="0" cx="0" fill-opacity="0.70258" style="fill:rgb(254, 13, 2);transform:matrix(1, 0, 0, 1, -53.5379, 474.186);;animation:none"></circle>
<circle fill="#feb200" r="5.749056816101074" transform="matrix(1,0,0,1,30.201139450073242,233.4196319580078)" cy="0" cx="0" fill-opacity="0.958055" style="fill:rgb(254, 178, 0);transform:matrix(1, 0, 0, 1, 30.2011, 233.42);;animation:none"></circle>
<circle fill="#043b42" r="2.577725410461426" transform="matrix(1,0,0,1,636.2398071289062,212.18861389160156)" cy="0" cx="0" fill-opacity="0.248989" style="fill:rgb(4, 59, 66);transform:matrix(1, 0, 0, 1, 636.24, 212.189);;animation:none"></circle>
<circle fill="#fe0d02" r="11.913074493408203" transform="matrix(1,0,0,1,124.0154800415039,826.283447265625)" cy="0" cx="0" fill-opacity="0.686938" style="fill:rgb(254, 13, 2);transform:matrix(1, 0, 0, 1, 124.015, 826.283);;animation:none"></circle>
<circle fill="#feb200" r="5.003335952758789" transform="matrix(1,0,0,1,979.9327392578125,325.44610595703125)" cy="0" cx="0" fill-opacity="0.966413" style="fill:rgb(254, 178, 0);transform:matrix(1, 0, 0, 1, 979.933, 325.446);;animation:none"></circle>
<circle fill="#043b42" r="6.576724529266357" transform="matrix(1,0,0,1,1169.9913330078125,741.6213989257812)" cy="0" cx="0" fill-opacity="0.309505" style="fill:rgb(4, 59, 66);transform:matrix(1, 0, 0, 1, 1169.99, 741.621);;animation:none"></circle>
<circle fill="#fe0d02" r="0" transform="matrix(1,0,0,1,419.70611572265625,50.49037170410156)" cy="0" cx="0" fill-opacity="0" style="fill:rgb(254, 13, 2);transform:matrix(1, 0, 0, 1, 419.706, 50.4904);;animation:none"></circle>
<circle fill="#feb200" r="4.4838080406188965" transform="matrix(1,0,0,1,301.8215026855469,360.49566650390625)" cy="0" cx="0" fill-opacity="0.19281" style="fill:rgb(254, 178, 0);transform:matrix(1, 0, 0, 1, 301.822, 360.496);;animation:none"></circle>
<circle fill="#043b42" r="11.55508041381836" transform="matrix(1,0,0,1,1621.6099853515625,392.8941955566406)" cy="0" cx="0" fill-opacity="0.761368" style="fill:rgb(4, 59, 66);transform:matrix(1, 0, 0, 1, 1621.61, 392.894);;animation:none"></circle>
<circle fill="#fe0d02" r="2.021308422088623" transform="matrix(1,0,0,1,194.37277221679688,79.02698516845703)" cy="0" cx="0" fill-opacity="0.52613" style="fill:rgb(254, 13, 2);transform:matrix(1, 0, 0, 1, 194.373, 79.027);;animation:none"></circle>
<circle fill="#feb200" r="3.722945213317871" transform="matrix(1,0,0,1,512.0499267578125,625.7814331054688)" cy="0" cx="0" fill-opacity="0.332802" style="fill:rgb(254, 178, 0);transform:matrix(1, 0, 0, 1, 512.05, 625.781);;animation:none"></circle>
<circle fill="#043b42" r="5.620669841766357" transform="matrix(1,0,0,1,68.56222534179688,677.707275390625)" cy="0" cx="0" fill-opacity="0.979185" style="fill:rgb(4, 59, 66);transform:matrix(1, 0, 0, 1, 68.5622, 677.707);;animation:none"></circle>
<circle fill="#fe0d02" r="0" transform="matrix(1,0,0,1,1037.2830810546875,824.5579223632812)" cy="0" cx="0" fill-opacity="0" style="fill:rgb(254, 13, 2);transform:matrix(1, 0, 0, 1, 1037.28, 824.558);;animation:none"></circle>
<circle fill="#feb200" r="3.8053178787231445" transform="matrix(1,0,0,1,1480.294189453125,349.5472717285156)" cy="0" cx="0" fill-opacity="0.212688" style="fill:rgb(254, 178, 0);transform:matrix(1, 0, 0, 1, 1480.29, 349.547);;animation:none"></circle>
<circle fill="#043b42" r="2.5017800331115723" transform="matrix(1,0,0,1,865.0013427734375,284.6575622558594)" cy="0" cx="0" fill-opacity="0.5149" style="fill:rgb(4, 59, 66);transform:matrix(1, 0, 0, 1, 865.001, 284.658);;animation:none"></circle>
<circle fill="#fe0d02" r="2.570756673812866" transform="matrix(1,0,0,1,1381.098876953125,121.40030670166016)" cy="0" cx="0" fill-opacity="0.530679" style="fill:rgb(254, 13, 2);transform:matrix(1, 0, 0, 1, 1381.1, 121.4);;animation:none"></circle>
<circle fill="#feb200" r="3.575103282928467" transform="matrix(1,0,0,1,1270.7684326171875,205.51475524902344)" cy="0" cx="0" fill-opacity="0.748733" style="fill:rgb(254, 178, 0);transform:matrix(1, 0, 0, 1, 1270.77, 205.515);;animation:none"></circle>
<circle fill="#043b42" r="14.256952285766602" transform="matrix(1,0,0,1,968.2240600585938,235.2711944580078)" cy="0" cx="0" fill-opacity="0.866406" style="fill:rgb(4, 59, 66);transform:matrix(1, 0, 0, 1, 968.224, 235.271);;animation:none"></circle>
<circle fill="#fe0d02" r="0" transform="matrix(1,0,0,1,856.8728637695312,491.4855041503906)" cy="0" cx="0" fill-opacity="0" style="fill:rgb(254, 13, 2);transform:matrix(1, 0, 0, 1, 856.873, 491.486);;animation:none"></circle>
<circle fill="#feb200" r="3.199565887451172" transform="matrix(1,0,0,1,1018.0576782226562,193.64889526367188)" cy="0" cx="0" fill-opacity="0.312219" style="fill:rgb(254, 178, 0);transform:matrix(1, 0, 0, 1, 1018.06, 193.649);;animation:none"></circle>
<circle fill="#043b42" r="0" transform="matrix(1,0,0,1,627.7568359375,903.013671875)" cy="0" cx="0" fill-opacity="0" style="fill:rgb(4, 59, 66);transform:matrix(1, 0, 0, 1, 627.757, 903.014);;animation:none"></circle>
<circle fill="#fe0d02" r="0" transform="matrix(1,0,0,1,684.1531372070312,480.6019287109375)" cy="0" cx="0" fill-opacity="0" style="fill:rgb(254, 13, 2);transform:matrix(1, 0, 0, 1, 684.153, 480.602);;animation:none"></circle>
<circle fill="#feb200" r="8.949832916259766" transform="matrix(1,0,0,1,1703.8760986328125,71.97685241699219)" cy="0" cx="0" fill-opacity="0.291304" style="fill:rgb(254, 178, 0);transform:matrix(1, 0, 0, 1, 1703.88, 71.9769);;animation:none"></circle>
<circle fill="#043b42" r="0.3445014953613281" transform="matrix(1,0,0,1,807.1729125976562,141.34860229492188)" cy="0" cx="0" fill-opacity="0.0225582" style="fill:rgb(4, 59, 66);transform:matrix(1, 0, 0, 1, 807.173, 141.349);;animation:none"></circle>
<circle fill="#fe0d02" r="0.3259587287902832" transform="matrix(1,0,0,1,1222.033447265625,640.5408935546875)" cy="0" cx="0" fill-opacity="0.0728488" style="fill:rgb(254, 13, 2);transform:matrix(1, 0, 0, 1, 1222.03, 640.541);;animation:none"></circle>
<circle fill="#feb200" r="2.626784324645996" transform="matrix(1,0,0,1,809.12109375,214.6913604736328)" cy="0" cx="0" fill-opacity="0.287688" style="fill:rgb(254, 178, 0);transform:matrix(1, 0, 0, 1, 809.121, 214.691);;animation:none"></circle>
<circle fill="#043b42" r="1.929870367050171" transform="matrix(1,0,0,1,1092.723876953125,680.8432006835938)" cy="0" cx="0" fill-opacity="0.496109" style="fill:rgb(4, 59, 66);transform:matrix(1, 0, 0, 1, 1092.72, 680.843);;animation:none"></circle>
<circle fill="#fe0d02" r="14.231033325195312" transform="matrix(1,0,0,1,1651.2802734375,691.8789672851562)" cy="0" cx="0" fill-opacity="0.782251" style="fill:rgb(254, 13, 2);transform:matrix(1, 0, 0, 1, 1651.28, 691.879);;animation:none"></circle>
<circle fill="#feb200" r="12.03679370880127" transform="matrix(1,0,0,1,653.43359375,207.27691650390625)" cy="0" cx="0" fill-opacity="0.675285" style="fill:rgb(254, 178, 0);transform:matrix(1, 0, 0, 1, 653.434, 207.277);;animation:none"></circle>
<circle fill="#043b42" r="6.873510837554932" transform="matrix(1,0,0,1,758.488037109375,4.351779937744141)" cy="0" cx="0" fill-opacity="0.829289" style="fill:rgb(4, 59, 66);transform:matrix(1, 0, 0, 1, 758.488, 4.35178);;animation:none"></circle>
<circle fill="#fe0d02" r="4.692088603973389" transform="matrix(1,0,0,1,24.115314483642578,700.9833984375)" cy="0" cx="0" fill-opacity="0.934198" style="fill:rgb(254, 13, 2);transform:matrix(1, 0, 0, 1, 24.1153, 700.983);;animation:none"></circle>
<circle fill="#feb200" r="3.177713394165039" transform="matrix(1,0,0,1,1655.0234375,517.2677001953125)" cy="0" cx="0" fill-opacity="0.255822" style="fill:rgb(254, 178, 0);transform:matrix(1, 0, 0, 1, 1655.02, 517.268);;animation:none"></circle>
<circle fill="#043b42" r="3.481501579284668" transform="matrix(1,0,0,1,1237.2425537109375,126.55562591552734)" cy="0" cx="0" fill-opacity="0.299656" style="fill:rgb(4, 59, 66);transform:matrix(1, 0, 0, 1, 1237.24, 126.556);;animation:none"></circle>
<circle fill="#fe0d02" r="0" transform="matrix(1,0,0,1,1255.6512451171875,78.83384704589844)" cy="0" cx="0" fill-opacity="0" style="fill:rgb(254, 13, 2);transform:matrix(1, 0, 0, 1, 1255.65, 78.8338);;animation:none"></circle>
<circle fill="#feb200" r="2.2947731018066406" transform="matrix(1,0,0,1,204.61187744140625,760.217041015625)" cy="0" cx="0" fill-opacity="0.186017" style="fill:rgb(254, 178, 0);transform:matrix(1, 0, 0, 1, 204.612, 760.217);;animation:none"></circle>
<circle fill="#043b42" r="3.54818058013916" transform="matrix(1,0,0,1,1462.4962158203125,765.0142822265625)" cy="0" cx="0" fill-opacity="0.231248" style="fill:rgb(4, 59, 66);transform:matrix(1, 0, 0, 1, 1462.5, 765.014);;animation:none"></circle>
<circle fill="#fe0d02" r="5.19903564453125" transform="matrix(1,0,0,1,723.591064453125,924.1685180664062)" cy="0" cx="0" fill-opacity="0.905726" style="fill:rgb(254, 13, 2);transform:matrix(1, 0, 0, 1, 723.591, 924.169);;animation:none"></circle>
<circle fill="#feb200" r="0" transform="matrix(1,0,0,1,176.4861297607422,748.0816650390625)" cy="0" cx="0" fill-opacity="0" style="fill:rgb(254, 178, 0);transform:matrix(1, 0, 0, 1, 176.486, 748.082);;animation:none"></circle>
<circle fill="#043b42" r="1.1216111183166504" transform="matrix(1,0,0,1,1187.6751708984375,264.3532409667969)" cy="0" cx="0" fill-opacity="0.196695" style="fill:rgb(4, 59, 66);transform:matrix(1, 0, 0, 1, 1187.68, 264.353);;animation:none"></circle>
<circle fill="#fe0d02" r="12.861921310424805" transform="matrix(1,0,0,1,787.8555908203125,300.6995849609375)" cy="0" cx="0" fill-opacity="0.841187" style="fill:rgb(254, 13, 2);transform:matrix(1, 0, 0, 1, 787.856, 300.7);;animation:none"></circle>
<circle fill="#feb200" r="0" transform="matrix(1,0,0,1,14.89204216003418,65.84237670898438)" cy="0" cx="0" fill-opacity="0" style="fill:rgb(254, 178, 0);transform:matrix(1, 0, 0, 1, 14.892, 65.8424);;animation:none"></circle>
<circle fill="#043b42" r="0" transform="matrix(1,0,0,1,1481.8204345703125,264.77777099609375)" cy="0" cx="0" fill-opacity="0" style="fill:rgb(4, 59, 66);transform:matrix(1, 0, 0, 1, 1481.82, 264.778);;animation:none"></circle>
<circle fill="#fe0d02" r="0" transform="matrix(1,0,0,1,1326.0802001953125,333.79644775390625)" cy="0" cx="0" fill-opacity="0" style="fill:rgb(254, 13, 2);transform:matrix(1, 0, 0, 1, 1326.08, 333.796);;animation:none"></circle>
<circle fill="#feb200" r="0" transform="matrix(1,0,0,1,690.6964111328125,334.7071533203125)" cy="0" cx="0" fill-opacity="0" style="fill:rgb(254, 178, 0);transform:matrix(1, 0, 0, 1, 690.696, 334.707);;animation:none"></circle>
<circle fill="#043b42" r="12.810009002685547" transform="matrix(1,0,0,1,1671.493896484375,647.73095703125)" cy="0" cx="0" fill-opacity="0.984613" style="fill:rgb(4, 59, 66);transform:matrix(1, 0, 0, 1, 1671.49, 647.731);;animation:none"></circle>
<circle fill="#fe0d02" r="0" transform="matrix(1,0,0,1,233.50758361816406,383.011474609375)" cy="0" cx="0" fill-opacity="0" style="fill:rgb(254, 13, 2);transform:matrix(1, 0, 0, 1, 233.508, 383.011);;animation:none"></circle>
<circle fill="#feb200" r="0" transform="matrix(1,0,0,1,1288.29052734375,504.7328186035156)" cy="0" cx="0" fill-opacity="0" style="fill:rgb(254, 178, 0);transform:matrix(1, 0, 0, 1, 1288.29, 504.733);;animation:none"></circle>
<circle fill="#043b42" r="4.2054338455200195" transform="matrix(1,0,0,1,1032.3121337890625,61.10741424560547)" cy="0" cx="0" fill-opacity="0.31054" style="fill:rgb(4, 59, 66);transform:matrix(1, 0, 0, 1, 1032.31, 61.1074);;animation:none"></circle>
<circle fill="#fe0d02" r="15.183843612670898" transform="matrix(1,0,0,1,606.2243041992188,336.05499267578125)" cy="0" cx="0" fill-opacity="0.85105" style="fill:rgb(254, 13, 2);transform:matrix(1, 0, 0, 1, 606.224, 336.055);;animation:none"></circle>
<circle fill="#feb200" r="0" transform="matrix(1,0,0,1,345.25152587890625,395.4842224121094)" cy="0" cx="0" fill-opacity="0" style="fill:rgb(254, 178, 0);transform:matrix(1, 0, 0, 1, 345.252, 395.484);;animation:none"></circle>
<circle fill="#043b42" r="0" transform="matrix(1,0,0,1,1073.6866455078125,399.1689147949219)" cy="0" cx="0" fill-opacity="0" style="fill:rgb(4, 59, 66);transform:matrix(1, 0, 0, 1, 1073.69, 399.169);;animation:none"></circle>
<circle fill="#fe0d02" r="10.328521728515625" transform="matrix(1,0,0,1,507.4967041015625,384.0878601074219)" cy="0" cx="0" fill-opacity="0.899409" style="fill:rgb(254, 13, 2);transform:matrix(1, 0, 0, 1, 507.497, 384.088);;animation:none"></circle>
<circle fill="#feb200" r="2.059994697570801" transform="matrix(1,0,0,1,644.7451782226562,243.35745239257812)" cy="0" cx="0" fill-opacity="0.178814" style="fill:rgb(254, 178, 0);transform:matrix(1, 0, 0, 1, 644.745, 243.357);;animation:none"></circle>
<circle fill="#043b42" r="11.535964965820312" transform="matrix(1,0,0,1,1021.3199462890625,119.1562728881836)" cy="0" cx="0" fill-opacity="0.902552" style="fill:rgb(4, 59, 66);transform:matrix(1, 0, 0, 1, 1021.32, 119.156);;animation:none"></circle>
<circle fill="#fe0d02" r="2.259105682373047" transform="matrix(1,0,0,1,316.40447998046875,87.10478973388672)" cy="0" cx="0" fill-opacity="0.384377" style="fill:rgb(254, 13, 2);transform:matrix(1, 0, 0, 1, 316.404, 87.1048);;animation:none"></circle>
<circle fill="#feb200" r="0" transform="matrix(1,0,0,1,1217.7960205078125,983.6590576171875)" cy="0" cx="0" fill-opacity="0" style="fill:rgb(254, 178, 0);transform:matrix(1, 0, 0, 1, 1217.8, 983.659);;animation:none"></circle>
<circle fill="#043b42" r="5.072430610656738" transform="matrix(1,0,0,1,79.04351043701172,609.3720092773438)" cy="0" cx="0" fill-opacity="0.858764" style="fill:rgb(4, 59, 66);transform:matrix(1, 0, 0, 1, 79.0435, 609.372);;animation:none"></circle>
<g></g></g><!-- [ldio] generated by https://loading.io --></svg>