<svg xmlns="http://www.w3.org/2000/svg" version="1.1" xmlns:xlink="http://www.w3.org/1999/xlink" xmlns:svgjs="http://svgjs.dev/svgjs" viewBox="0 0 2400 800" opacity="1"><defs><linearGradient x1="50%" y1="0%" x2="50%" y2="100%" id="sssurf-grad"><stop stop-color="hsla(230, 58%, 35%, 1.00)" stop-opacity="1" offset="0%"></stop><stop stop-color="hsl(230, 55%, 70%)" stop-opacity="1" offset="100%"></stop></linearGradient></defs><g fill="url(#sssurf-grad)" transform="matrix(1,0,0,1,11.510009765625,-46.97018814086914)"><path d="M-10,10C8.75,10,44.583333333333336,13.125,80,10C115.41666666666666,6.875,126.66666666666666,-6.041666666666667,160,-5C193.33333333333334,-3.958333333333333,206.66666666666666,13.958333333333334,240,15C273.3333333333333,16.041666666666668,286.6666666666667,-0.8333333333333333,320,0C353.3333333333333,0.8333333333333333,366.6666666666667,18.166666666666668,400,19C433.3333333333333,19.833333333333332,446.6666666666667,3.375,480,4C513.3333333333334,4.625,526.6666666666666,21.375,560,22C593.3333333333334,22.625,606.6666666666666,5.958333333333333,640,7C673.3333333333334,8.041666666666666,686.6666666666666,25.958333333333332,720,27C753.3333333333334,28.041666666666668,766.6666666666666,11.375,800,12C833.3333333333334,12.625,846.6666666666666,29.166666666666668,880,30C913.3333333333334,30.833333333333332,926.6666666666666,15.166666666666666,960,16C993.3333333333334,16.833333333333332,1006.6666666666666,33.375,1040,34C1073.3333333333333,34.625,1086.6666666666667,17.958333333333332,1120,19C1153.3333333333333,20.041666666666668,1166.6666666666667,37.958333333333336,1200,39C1233.3333333333333,40.041666666666664,1246.6666666666667,23.166666666666668,1280,24C1313.3333333333333,24.833333333333332,1326.6666666666667,42.166666666666664,1360,43C1393.3333333333333,43.833333333333336,1406.6666666666667,27.375,1440,28C1473.3333333333333,28.625,1486.6666666666667,45.166666666666664,1520,46C1553.3333333333333,46.833333333333336,1566.6666666666667,31.166666666666668,1600,32C1633.3333333333333,32.833333333333336,1646.6666666666667,49.375,1680,50C1713.3333333333333,50.625,1726.6666666666667,34.166666666666664,1760,35C1793.3333333333333,35.833333333333336,1806.6666666666667,52.958333333333336,1840,54C1873.3333333333333,55.041666666666664,1886.6666666666667,39.166666666666664,1920,40C1953.3333333333333,40.833333333333336,1966.6666666666667,57.375,2000,58C2033.3333333333333,58.625,2046.6666666666667,42.166666666666664,2080,43C2113.3333333333335,43.833333333333336,2126.6666666666665,60.958333333333336,2160,62C2193.3333333333335,63.041666666666664,2206.6666666666665,47.166666666666664,2240,48C2273.3333333333335,48.833333333333336,2286.6666666666665,65.375,2320,66C2353.3333333333335,66.625,2331.25,-18.58333333333333,2400,51C2468.75,120.58333333333333,3254.1666666666665,223.125,2650,400C2045.8333333333335,576.875,156.25,795.8333333333334,-500,900" transform="matrix(1,0,0,1,0,47)" opacity="0.05"></path><path d="M-10,10C8.75,10,44.583333333333336,13.125,80,10C115.41666666666666,6.875,126.66666666666666,-6.041666666666667,160,-5C193.33333333333334,-3.958333333333333,206.66666666666666,13.958333333333334,240,15C273.3333333333333,16.041666666666668,286.6666666666667,-0.8333333333333333,320,0C353.3333333333333,0.8333333333333333,366.6666666666667,18.166666666666668,400,19C433.3333333333333,19.833333333333332,446.6666666666667,3.375,480,4C513.3333333333334,4.625,526.6666666666666,21.375,560,22C593.3333333333334,22.625,606.6666666666666,5.958333333333333,640,7C673.3333333333334,8.041666666666666,686.6666666666666,25.958333333333332,720,27C753.3333333333334,28.041666666666668,766.6666666666666,11.375,800,12C833.3333333333334,12.625,846.6666666666666,29.166666666666668,880,30C913.3333333333334,30.833333333333332,926.6666666666666,15.166666666666666,960,16C993.3333333333334,16.833333333333332,1006.6666666666666,33.375,1040,34C1073.3333333333333,34.625,1086.6666666666667,17.958333333333332,1120,19C1153.3333333333333,20.041666666666668,1166.6666666666667,37.958333333333336,1200,39C1233.3333333333333,40.041666666666664,1246.6666666666667,23.166666666666668,1280,24C1313.3333333333333,24.833333333333332,1326.6666666666667,42.166666666666664,1360,43C1393.3333333333333,43.833333333333336,1406.6666666666667,27.375,1440,28C1473.3333333333333,28.625,1486.6666666666667,45.166666666666664,1520,46C1553.3333333333333,46.833333333333336,1566.6666666666667,31.166666666666668,1600,32C1633.3333333333333,32.833333333333336,1646.6666666666667,49.375,1680,50C1713.3333333333333,50.625,1726.6666666666667,34.166666666666664,1760,35C1793.3333333333333,35.833333333333336,1806.6666666666667,52.958333333333336,1840,54C1873.3333333333333,55.041666666666664,1886.6666666666667,39.166666666666664,1920,40C1953.3333333333333,40.833333333333336,1966.6666666666667,57.375,2000,58C2033.3333333333333,58.625,2046.6666666666667,42.166666666666664,2080,43C2113.3333333333335,43.833333333333336,2126.6666666666665,60.958333333333336,2160,62C2193.3333333333335,63.041666666666664,2206.6666666666665,47.166666666666664,2240,48C2273.3333333333335,48.833333333333336,2286.6666666666665,65.375,2320,66C2353.3333333333335,66.625,2331.25,-18.58333333333333,2400,51C2468.75,120.58333333333333,3254.1666666666665,223.125,2650,400C2045.8333333333335,576.875,156.25,795.8333333333334,-500,900" transform="matrix(1,0,0,1,0,94)" opacity="0.11"></path><path d="M-10,10C8.75,10,44.583333333333336,13.125,80,10C115.41666666666666,6.875,126.66666666666666,-6.041666666666667,160,-5C193.33333333333334,-3.958333333333333,206.66666666666666,13.958333333333334,240,15C273.3333333333333,16.041666666666668,286.6666666666667,-0.8333333333333333,320,0C353.3333333333333,0.8333333333333333,366.6666666666667,18.166666666666668,400,19C433.3333333333333,19.833333333333332,446.6666666666667,3.375,480,4C513.3333333333334,4.625,526.6666666666666,21.375,560,22C593.3333333333334,22.625,606.6666666666666,5.958333333333333,640,7C673.3333333333334,8.041666666666666,686.6666666666666,25.958333333333332,720,27C753.3333333333334,28.041666666666668,766.6666666666666,11.375,800,12C833.3333333333334,12.625,846.6666666666666,29.166666666666668,880,30C913.3333333333334,30.833333333333332,926.6666666666666,15.166666666666666,960,16C993.3333333333334,16.833333333333332,1006.6666666666666,33.375,1040,34C1073.3333333333333,34.625,1086.6666666666667,17.958333333333332,1120,19C1153.3333333333333,20.041666666666668,1166.6666666666667,37.958333333333336,1200,39C1233.3333333333333,40.041666666666664,1246.6666666666667,23.166666666666668,1280,24C1313.3333333333333,24.833333333333332,1326.6666666666667,42.166666666666664,1360,43C1393.3333333333333,43.833333333333336,1406.6666666666667,27.375,1440,28C1473.3333333333333,28.625,1486.6666666666667,45.166666666666664,1520,46C1553.3333333333333,46.833333333333336,1566.6666666666667,31.166666666666668,1600,32C1633.3333333333333,32.833333333333336,1646.6666666666667,49.375,1680,50C1713.3333333333333,50.625,1726.6666666666667,34.166666666666664,1760,35C1793.3333333333333,35.833333333333336,1806.6666666666667,52.958333333333336,1840,54C1873.3333333333333,55.041666666666664,1886.6666666666667,39.166666666666664,1920,40C1953.3333333333333,40.833333333333336,1966.6666666666667,57.375,2000,58C2033.3333333333333,58.625,2046.6666666666667,42.166666666666664,2080,43C2113.3333333333335,43.833333333333336,2126.6666666666665,60.958333333333336,2160,62C2193.3333333333335,63.041666666666664,2206.6666666666665,47.166666666666664,2240,48C2273.3333333333335,48.833333333333336,2286.6666666666665,65.375,2320,66C2353.3333333333335,66.625,2331.25,-18.58333333333333,2400,51C2468.75,120.58333333333333,3254.1666666666665,223.125,2650,400C2045.8333333333335,576.875,156.25,795.8333333333334,-500,900" transform="matrix(1,0,0,1,0,141)" opacity="0.18"></path><path d="M-10,10C8.75,10,44.583333333333336,13.125,80,10C115.41666666666666,6.875,126.66666666666666,-6.041666666666667,160,-5C193.33333333333334,-3.958333333333333,206.66666666666666,13.958333333333334,240,15C273.3333333333333,16.041666666666668,286.6666666666667,-0.8333333333333333,320,0C353.3333333333333,0.8333333333333333,366.6666666666667,18.166666666666668,400,19C433.3333333333333,19.833333333333332,446.6666666666667,3.375,480,4C513.3333333333334,4.625,526.6666666666666,21.375,560,22C593.3333333333334,22.625,606.6666666666666,5.958333333333333,640,7C673.3333333333334,8.041666666666666,686.6666666666666,25.958333333333332,720,27C753.3333333333334,28.041666666666668,766.6666666666666,11.375,800,12C833.3333333333334,12.625,846.6666666666666,29.166666666666668,880,30C913.3333333333334,30.833333333333332,926.6666666666666,15.166666666666666,960,16C993.3333333333334,16.833333333333332,1006.6666666666666,33.375,1040,34C1073.3333333333333,34.625,1086.6666666666667,17.958333333333332,1120,19C1153.3333333333333,20.041666666666668,1166.6666666666667,37.958333333333336,1200,39C1233.3333333333333,40.041666666666664,1246.6666666666667,23.166666666666668,1280,24C1313.3333333333333,24.833333333333332,1326.6666666666667,42.166666666666664,1360,43C1393.3333333333333,43.833333333333336,1406.6666666666667,27.375,1440,28C1473.3333333333333,28.625,1486.6666666666667,45.166666666666664,1520,46C1553.3333333333333,46.833333333333336,1566.6666666666667,31.166666666666668,1600,32C1633.3333333333333,32.833333333333336,1646.6666666666667,49.375,1680,50C1713.3333333333333,50.625,1726.6666666666667,34.166666666666664,1760,35C1793.3333333333333,35.833333333333336,1806.6666666666667,52.958333333333336,1840,54C1873.3333333333333,55.041666666666664,1886.6666666666667,39.166666666666664,1920,40C1953.3333333333333,40.833333333333336,1966.6666666666667,57.375,2000,58C2033.3333333333333,58.625,2046.6666666666667,42.166666666666664,2080,43C2113.3333333333335,43.833333333333336,2126.6666666666665,60.958333333333336,2160,62C2193.3333333333335,63.041666666666664,2206.6666666666665,47.166666666666664,2240,48C2273.3333333333335,48.833333333333336,2286.6666666666665,65.375,2320,66C2353.3333333333335,66.625,2331.25,-18.58333333333333,2400,51C2468.75,120.58333333333333,3254.1666666666665,223.125,2650,400C2045.8333333333335,576.875,156.25,795.8333333333334,-500,900" transform="matrix(1,0,0,1,0,188)" opacity="0.24"></path><path d="M-10,10C8.75,10,44.583333333333336,13.125,80,10C115.41666666666666,6.875,126.66666666666666,-6.041666666666667,160,-5C193.33333333333334,-3.958333333333333,206.66666666666666,13.958333333333334,240,15C273.3333333333333,16.041666666666668,286.6666666666667,-0.8333333333333333,320,0C353.3333333333333,0.8333333333333333,366.6666666666667,18.166666666666668,400,19C433.3333333333333,19.833333333333332,446.6666666666667,3.375,480,4C513.3333333333334,4.625,526.6666666666666,21.375,560,22C593.3333333333334,22.625,606.6666666666666,5.958333333333333,640,7C673.3333333333334,8.041666666666666,686.6666666666666,25.958333333333332,720,27C753.3333333333334,28.041666666666668,766.6666666666666,11.375,800,12C833.3333333333334,12.625,846.6666666666666,29.166666666666668,880,30C913.3333333333334,30.833333333333332,926.6666666666666,15.166666666666666,960,16C993.3333333333334,16.833333333333332,1006.6666666666666,33.375,1040,34C1073.3333333333333,34.625,1086.6666666666667,17.958333333333332,1120,19C1153.3333333333333,20.041666666666668,1166.6666666666667,37.958333333333336,1200,39C1233.3333333333333,40.041666666666664,1246.6666666666667,23.166666666666668,1280,24C1313.3333333333333,24.833333333333332,1326.6666666666667,42.166666666666664,1360,43C1393.3333333333333,43.833333333333336,1406.6666666666667,27.375,1440,28C1473.3333333333333,28.625,1486.6666666666667,45.166666666666664,1520,46C1553.3333333333333,46.833333333333336,1566.6666666666667,31.166666666666668,1600,32C1633.3333333333333,32.833333333333336,1646.6666666666667,49.375,1680,50C1713.3333333333333,50.625,1726.6666666666667,34.166666666666664,1760,35C1793.3333333333333,35.833333333333336,1806.6666666666667,52.958333333333336,1840,54C1873.3333333333333,55.041666666666664,1886.6666666666667,39.166666666666664,1920,40C1953.3333333333333,40.833333333333336,1966.6666666666667,57.375,2000,58C2033.3333333333333,58.625,2046.6666666666667,42.166666666666664,2080,43C2113.3333333333335,43.833333333333336,2126.6666666666665,60.958333333333336,2160,62C2193.3333333333335,63.041666666666664,2206.6666666666665,47.166666666666664,2240,48C2273.3333333333335,48.833333333333336,2286.6666666666665,65.375,2320,66C2353.3333333333335,66.625,2331.25,-18.58333333333333,2400,51C2468.75,120.58333333333333,3254.1666666666665,223.125,2650,400C2045.8333333333335,576.875,156.25,795.8333333333334,-500,900" transform="matrix(1,0,0,1,0,235)" opacity="0.30"></path><path d="M-10,10C8.75,10,44.583333333333336,13.125,80,10C115.41666666666666,6.875,126.66666666666666,-6.041666666666667,160,-5C193.33333333333334,-3.958333333333333,206.66666666666666,13.958333333333334,240,15C273.3333333333333,16.041666666666668,286.6666666666667,-0.8333333333333333,320,0C353.3333333333333,0.8333333333333333,366.6666666666667,18.166666666666668,400,19C433.3333333333333,19.833333333333332,446.6666666666667,3.375,480,4C513.3333333333334,4.625,526.6666666666666,21.375,560,22C593.3333333333334,22.625,606.6666666666666,5.958333333333333,640,7C673.3333333333334,8.041666666666666,686.6666666666666,25.958333333333332,720,27C753.3333333333334,28.041666666666668,766.6666666666666,11.375,800,12C833.3333333333334,12.625,846.6666666666666,29.166666666666668,880,30C913.3333333333334,30.833333333333332,926.6666666666666,15.166666666666666,960,16C993.3333333333334,16.833333333333332,1006.6666666666666,33.375,1040,34C1073.3333333333333,34.625,1086.6666666666667,17.958333333333332,1120,19C1153.3333333333333,20.041666666666668,1166.6666666666667,37.958333333333336,1200,39C1233.3333333333333,40.041666666666664,1246.6666666666667,23.166666666666668,1280,24C1313.3333333333333,24.833333333333332,1326.6666666666667,42.166666666666664,1360,43C1393.3333333333333,43.833333333333336,1406.6666666666667,27.375,1440,28C1473.3333333333333,28.625,1486.6666666666667,45.166666666666664,1520,46C1553.3333333333333,46.833333333333336,1566.6666666666667,31.166666666666668,1600,32C1633.3333333333333,32.833333333333336,1646.6666666666667,49.375,1680,50C1713.3333333333333,50.625,1726.6666666666667,34.166666666666664,1760,35C1793.3333333333333,35.833333333333336,1806.6666666666667,52.958333333333336,1840,54C1873.3333333333333,55.041666666666664,1886.6666666666667,39.166666666666664,1920,40C1953.3333333333333,40.833333333333336,1966.6666666666667,57.375,2000,58C2033.3333333333333,58.625,2046.6666666666667,42.166666666666664,2080,43C2113.3333333333335,43.833333333333336,2126.6666666666665,60.958333333333336,2160,62C2193.3333333333335,63.041666666666664,2206.6666666666665,47.166666666666664,2240,48C2273.3333333333335,48.833333333333336,2286.6666666666665,65.375,2320,66C2353.3333333333335,66.625,2331.25,-18.58333333333333,2400,51C2468.75,120.58333333333333,3254.1666666666665,223.125,2650,400C2045.8333333333335,576.875,156.25,795.8333333333334,-500,900" transform="matrix(1,0,0,1,0,282)" opacity="0.37"></path><path d="M-10,10C8.75,10,44.583333333333336,13.125,80,10C115.41666666666666,6.875,126.66666666666666,-6.041666666666667,160,-5C193.33333333333334,-3.958333333333333,206.66666666666666,13.958333333333334,240,15C273.3333333333333,16.041666666666668,286.6666666666667,-0.8333333333333333,320,0C353.3333333333333,0.8333333333333333,366.6666666666667,18.166666666666668,400,19C433.3333333333333,19.833333333333332,446.6666666666667,3.375,480,4C513.3333333333334,4.625,526.6666666666666,21.375,560,22C593.3333333333334,22.625,606.6666666666666,5.958333333333333,640,7C673.3333333333334,8.041666666666666,686.6666666666666,25.958333333333332,720,27C753.3333333333334,28.041666666666668,766.6666666666666,11.375,800,12C833.3333333333334,12.625,846.6666666666666,29.166666666666668,880,30C913.3333333333334,30.833333333333332,926.6666666666666,15.166666666666666,960,16C993.3333333333334,16.833333333333332,1006.6666666666666,33.375,1040,34C1073.3333333333333,34.625,1086.6666666666667,17.958333333333332,1120,19C1153.3333333333333,20.041666666666668,1166.6666666666667,37.958333333333336,1200,39C1233.3333333333333,40.041666666666664,1246.6666666666667,23.166666666666668,1280,24C1313.3333333333333,24.833333333333332,1326.6666666666667,42.166666666666664,1360,43C1393.3333333333333,43.833333333333336,1406.6666666666667,27.375,1440,28C1473.3333333333333,28.625,1486.6666666666667,45.166666666666664,1520,46C1553.3333333333333,46.833333333333336,1566.6666666666667,31.166666666666668,1600,32C1633.3333333333333,32.833333333333336,1646.6666666666667,49.375,1680,50C1713.3333333333333,50.625,1726.6666666666667,34.166666666666664,1760,35C1793.3333333333333,35.833333333333336,1806.6666666666667,52.958333333333336,1840,54C1873.3333333333333,55.041666666666664,1886.6666666666667,39.166666666666664,1920,40C1953.3333333333333,40.833333333333336,1966.6666666666667,57.375,2000,58C2033.3333333333333,58.625,2046.6666666666667,42.166666666666664,2080,43C2113.3333333333335,43.833333333333336,2126.6666666666665,60.958333333333336,2160,62C2193.3333333333335,63.041666666666664,2206.6666666666665,47.166666666666664,2240,48C2273.3333333333335,48.833333333333336,2286.6666666666665,65.375,2320,66C2353.3333333333335,66.625,2331.25,-18.58333333333333,2400,51C2468.75,120.58333333333333,3254.1666666666665,223.125,2650,400C2045.8333333333335,576.875,156.25,795.8333333333334,-500,900" transform="matrix(1,0,0,1,0,329)" opacity="0.43"></path><path d="M-10,10C8.75,10,44.583333333333336,13.125,80,10C115.41666666666666,6.875,126.66666666666666,-6.041666666666667,160,-5C193.33333333333334,-3.958333333333333,206.66666666666666,13.958333333333334,240,15C273.3333333333333,16.041666666666668,286.6666666666667,-0.8333333333333333,320,0C353.3333333333333,0.8333333333333333,366.6666666666667,18.166666666666668,400,19C433.3333333333333,19.833333333333332,446.6666666666667,3.375,480,4C513.3333333333334,4.625,526.6666666666666,21.375,560,22C593.3333333333334,22.625,606.6666666666666,5.958333333333333,640,7C673.3333333333334,8.041666666666666,686.6666666666666,25.958333333333332,720,27C753.3333333333334,28.041666666666668,766.6666666666666,11.375,800,12C833.3333333333334,12.625,846.6666666666666,29.166666666666668,880,30C913.3333333333334,30.833333333333332,926.6666666666666,15.166666666666666,960,16C993.3333333333334,16.833333333333332,1006.6666666666666,33.375,1040,34C1073.3333333333333,34.625,1086.6666666666667,17.958333333333332,1120,19C1153.3333333333333,20.041666666666668,1166.6666666666667,37.958333333333336,1200,39C1233.3333333333333,40.041666666666664,1246.6666666666667,23.166666666666668,1280,24C1313.3333333333333,24.833333333333332,1326.6666666666667,42.166666666666664,1360,43C1393.3333333333333,43.833333333333336,1406.6666666666667,27.375,1440,28C1473.3333333333333,28.625,1486.6666666666667,45.166666666666664,1520,46C1553.3333333333333,46.833333333333336,1566.6666666666667,31.166666666666668,1600,32C1633.3333333333333,32.833333333333336,1646.6666666666667,49.375,1680,50C1713.3333333333333,50.625,1726.6666666666667,34.166666666666664,1760,35C1793.3333333333333,35.833333333333336,1806.6666666666667,52.958333333333336,1840,54C1873.3333333333333,55.041666666666664,1886.6666666666667,39.166666666666664,1920,40C1953.3333333333333,40.833333333333336,1966.6666666666667,57.375,2000,58C2033.3333333333333,58.625,2046.6666666666667,42.166666666666664,2080,43C2113.3333333333335,43.833333333333336,2126.6666666666665,60.958333333333336,2160,62C2193.3333333333335,63.041666666666664,2206.6666666666665,47.166666666666664,2240,48C2273.3333333333335,48.833333333333336,2286.6666666666665,65.375,2320,66C2353.3333333333335,66.625,2331.25,-18.58333333333333,2400,51C2468.75,120.58333333333333,3254.1666666666665,223.125,2650,400C2045.8333333333335,576.875,156.25,795.8333333333334,-500,900" transform="matrix(1,0,0,1,0,376)" opacity="0.49"></path><path d="M-10,10C8.75,10,44.583333333333336,13.125,80,10C115.41666666666666,6.875,126.66666666666666,-6.041666666666667,160,-5C193.33333333333334,-3.958333333333333,206.66666666666666,13.958333333333334,240,15C273.3333333333333,16.041666666666668,286.6666666666667,-0.8333333333333333,320,0C353.3333333333333,0.8333333333333333,366.6666666666667,18.166666666666668,400,19C433.3333333333333,19.833333333333332,446.6666666666667,3.375,480,4C513.3333333333334,4.625,526.6666666666666,21.375,560,22C593.3333333333334,22.625,606.6666666666666,5.958333333333333,640,7C673.3333333333334,8.041666666666666,686.6666666666666,25.958333333333332,720,27C753.3333333333334,28.041666666666668,766.6666666666666,11.375,800,12C833.3333333333334,12.625,846.6666666666666,29.166666666666668,880,30C913.3333333333334,30.833333333333332,926.6666666666666,15.166666666666666,960,16C993.3333333333334,16.833333333333332,1006.6666666666666,33.375,1040,34C1073.3333333333333,34.625,1086.6666666666667,17.958333333333332,1120,19C1153.3333333333333,20.041666666666668,1166.6666666666667,37.958333333333336,1200,39C1233.3333333333333,40.041666666666664,1246.6666666666667,23.166666666666668,1280,24C1313.3333333333333,24.833333333333332,1326.6666666666667,42.166666666666664,1360,43C1393.3333333333333,43.833333333333336,1406.6666666666667,27.375,1440,28C1473.3333333333333,28.625,1486.6666666666667,45.166666666666664,1520,46C1553.3333333333333,46.833333333333336,1566.6666666666667,31.166666666666668,1600,32C1633.3333333333333,32.833333333333336,1646.6666666666667,49.375,1680,50C1713.3333333333333,50.625,1726.6666666666667,34.166666666666664,1760,35C1793.3333333333333,35.833333333333336,1806.6666666666667,52.958333333333336,1840,54C1873.3333333333333,55.041666666666664,1886.6666666666667,39.166666666666664,1920,40C1953.3333333333333,40.833333333333336,1966.6666666666667,57.375,2000,58C2033.3333333333333,58.625,2046.6666666666667,42.166666666666664,2080,43C2113.3333333333335,43.833333333333336,2126.6666666666665,60.958333333333336,2160,62C2193.3333333333335,63.041666666666664,2206.6666666666665,47.166666666666664,2240,48C2273.3333333333335,48.833333333333336,2286.6666666666665,65.375,2320,66C2353.3333333333335,66.625,2331.25,-18.58333333333333,2400,51C2468.75,120.58333333333333,3254.1666666666665,223.125,2650,400C2045.8333333333335,576.875,156.25,795.8333333333334,-500,900" transform="matrix(1,0,0,1,0,423)" opacity="0.56"></path><path d="M-10,10C8.75,10,44.583333333333336,13.125,80,10C115.41666666666666,6.875,126.66666666666666,-6.041666666666667,160,-5C193.33333333333334,-3.958333333333333,206.66666666666666,13.958333333333334,240,15C273.3333333333333,16.041666666666668,286.6666666666667,-0.8333333333333333,320,0C353.3333333333333,0.8333333333333333,366.6666666666667,18.166666666666668,400,19C433.3333333333333,19.833333333333332,446.6666666666667,3.375,480,4C513.3333333333334,4.625,526.6666666666666,21.375,560,22C593.3333333333334,22.625,606.6666666666666,5.958333333333333,640,7C673.3333333333334,8.041666666666666,686.6666666666666,25.958333333333332,720,27C753.3333333333334,28.041666666666668,766.6666666666666,11.375,800,12C833.3333333333334,12.625,846.6666666666666,29.166666666666668,880,30C913.3333333333334,30.833333333333332,926.6666666666666,15.166666666666666,960,16C993.3333333333334,16.833333333333332,1006.6666666666666,33.375,1040,34C1073.3333333333333,34.625,1086.6666666666667,17.958333333333332,1120,19C1153.3333333333333,20.041666666666668,1166.6666666666667,37.958333333333336,1200,39C1233.3333333333333,40.041666666666664,1246.6666666666667,23.166666666666668,1280,24C1313.3333333333333,24.833333333333332,1326.6666666666667,42.166666666666664,1360,43C1393.3333333333333,43.833333333333336,1406.6666666666667,27.375,1440,28C1473.3333333333333,28.625,1486.6666666666667,45.166666666666664,1520,46C1553.3333333333333,46.833333333333336,1566.6666666666667,31.166666666666668,1600,32C1633.3333333333333,32.833333333333336,1646.6666666666667,49.375,1680,50C1713.3333333333333,50.625,1726.6666666666667,34.166666666666664,1760,35C1793.3333333333333,35.833333333333336,1806.6666666666667,52.958333333333336,1840,54C1873.3333333333333,55.041666666666664,1886.6666666666667,39.166666666666664,1920,40C1953.3333333333333,40.833333333333336,1966.6666666666667,57.375,2000,58C2033.3333333333333,58.625,2046.6666666666667,42.166666666666664,2080,43C2113.3333333333335,43.833333333333336,2126.6666666666665,60.958333333333336,2160,62C2193.3333333333335,63.041666666666664,2206.6666666666665,47.166666666666664,2240,48C2273.3333333333335,48.833333333333336,2286.6666666666665,65.375,2320,66C2353.3333333333335,66.625,2331.25,-18.58333333333333,2400,51C2468.75,120.58333333333333,3254.1666666666665,223.125,2650,400C2045.8333333333335,576.875,156.25,795.8333333333334,-500,900" transform="matrix(1,0,0,1,0,470)" opacity="0.62"></path><path d="M-10,10C8.75,10,44.583333333333336,13.125,80,10C115.41666666666666,6.875,126.66666666666666,-6.041666666666667,160,-5C193.33333333333334,-3.958333333333333,206.66666666666666,13.958333333333334,240,15C273.3333333333333,16.041666666666668,286.6666666666667,-0.8333333333333333,320,0C353.3333333333333,0.8333333333333333,366.6666666666667,18.166666666666668,400,19C433.3333333333333,19.833333333333332,446.6666666666667,3.375,480,4C513.3333333333334,4.625,526.6666666666666,21.375,560,22C593.3333333333334,22.625,606.6666666666666,5.958333333333333,640,7C673.3333333333334,8.041666666666666,686.6666666666666,25.958333333333332,720,27C753.3333333333334,28.041666666666668,766.6666666666666,11.375,800,12C833.3333333333334,12.625,846.6666666666666,29.166666666666668,880,30C913.3333333333334,30.833333333333332,926.6666666666666,15.166666666666666,960,16C993.3333333333334,16.833333333333332,1006.6666666666666,33.375,1040,34C1073.3333333333333,34.625,1086.6666666666667,17.958333333333332,1120,19C1153.3333333333333,20.041666666666668,1166.6666666666667,37.958333333333336,1200,39C1233.3333333333333,40.041666666666664,1246.6666666666667,23.166666666666668,1280,24C1313.3333333333333,24.833333333333332,1326.6666666666667,42.166666666666664,1360,43C1393.3333333333333,43.833333333333336,1406.6666666666667,27.375,1440,28C1473.3333333333333,28.625,1486.6666666666667,45.166666666666664,1520,46C1553.3333333333333,46.833333333333336,1566.6666666666667,31.166666666666668,1600,32C1633.3333333333333,32.833333333333336,1646.6666666666667,49.375,1680,50C1713.3333333333333,50.625,1726.6666666666667,34.166666666666664,1760,35C1793.3333333333333,35.833333333333336,1806.6666666666667,52.958333333333336,1840,54C1873.3333333333333,55.041666666666664,1886.6666666666667,39.166666666666664,1920,40C1953.3333333333333,40.833333333333336,1966.6666666666667,57.375,2000,58C2033.3333333333333,58.625,2046.6666666666667,42.166666666666664,2080,43C2113.3333333333335,43.833333333333336,2126.6666666666665,60.958333333333336,2160,62C2193.3333333333335,63.041666666666664,2206.6666666666665,47.166666666666664,2240,48C2273.3333333333335,48.833333333333336,2286.6666666666665,65.375,2320,66C2353.3333333333335,66.625,2331.25,-18.58333333333333,2400,51C2468.75,120.58333333333333,3254.1666666666665,223.125,2650,400C2045.8333333333335,576.875,156.25,795.8333333333334,-500,900" transform="matrix(1,0,0,1,0,517)" opacity="0.68"></path><path d="M-10,10C8.75,10,44.583333333333336,13.125,80,10C115.41666666666666,6.875,126.66666666666666,-6.041666666666667,160,-5C193.33333333333334,-3.958333333333333,206.66666666666666,13.958333333333334,240,15C273.3333333333333,16.041666666666668,286.6666666666667,-0.8333333333333333,320,0C353.3333333333333,0.8333333333333333,366.6666666666667,18.166666666666668,400,19C433.3333333333333,19.833333333333332,446.6666666666667,3.375,480,4C513.3333333333334,4.625,526.6666666666666,21.375,560,22C593.3333333333334,22.625,606.6666666666666,5.958333333333333,640,7C673.3333333333334,8.041666666666666,686.6666666666666,25.958333333333332,720,27C753.3333333333334,28.041666666666668,766.6666666666666,11.375,800,12C833.3333333333334,12.625,846.6666666666666,29.166666666666668,880,30C913.3333333333334,30.833333333333332,926.6666666666666,15.166666666666666,960,16C993.3333333333334,16.833333333333332,1006.6666666666666,33.375,1040,34C1073.3333333333333,34.625,1086.6666666666667,17.958333333333332,1120,19C1153.3333333333333,20.041666666666668,1166.6666666666667,37.958333333333336,1200,39C1233.3333333333333,40.041666666666664,1246.6666666666667,23.166666666666668,1280,24C1313.3333333333333,24.833333333333332,1326.6666666666667,42.166666666666664,1360,43C1393.3333333333333,43.833333333333336,1406.6666666666667,27.375,1440,28C1473.3333333333333,28.625,1486.6666666666667,45.166666666666664,1520,46C1553.3333333333333,46.833333333333336,1566.6666666666667,31.166666666666668,1600,32C1633.3333333333333,32.833333333333336,1646.6666666666667,49.375,1680,50C1713.3333333333333,50.625,1726.6666666666667,34.166666666666664,1760,35C1793.3333333333333,35.833333333333336,1806.6666666666667,52.958333333333336,1840,54C1873.3333333333333,55.041666666666664,1886.6666666666667,39.166666666666664,1920,40C1953.3333333333333,40.833333333333336,1966.6666666666667,57.375,2000,58C2033.3333333333333,58.625,2046.6666666666667,42.166666666666664,2080,43C2113.3333333333335,43.833333333333336,2126.6666666666665,60.958333333333336,2160,62C2193.3333333333335,63.041666666666664,2206.6666666666665,47.166666666666664,2240,48C2273.3333333333335,48.833333333333336,2286.6666666666665,65.375,2320,66C2353.3333333333335,66.625,2331.25,-18.58333333333333,2400,51C2468.75,120.58333333333333,3254.1666666666665,223.125,2650,400C2045.8333333333335,576.875,156.25,795.8333333333334,-500,900" transform="matrix(1,0,0,1,0,564)" opacity="0.75"></path><path d="M-10,10C8.75,10,44.583333333333336,13.125,80,10C115.41666666666666,6.875,126.66666666666666,-6.041666666666667,160,-5C193.33333333333334,-3.958333333333333,206.66666666666666,13.958333333333334,240,15C273.3333333333333,16.041666666666668,286.6666666666667,-0.8333333333333333,320,0C353.3333333333333,0.8333333333333333,366.6666666666667,18.166666666666668,400,19C433.3333333333333,19.833333333333332,446.6666666666667,3.375,480,4C513.3333333333334,4.625,526.6666666666666,21.375,560,22C593.3333333333334,22.625,606.6666666666666,5.958333333333333,640,7C673.3333333333334,8.041666666666666,686.6666666666666,25.958333333333332,720,27C753.3333333333334,28.041666666666668,766.6666666666666,11.375,800,12C833.3333333333334,12.625,846.6666666666666,29.166666666666668,880,30C913.3333333333334,30.833333333333332,926.6666666666666,15.166666666666666,960,16C993.3333333333334,16.833333333333332,1006.6666666666666,33.375,1040,34C1073.3333333333333,34.625,1086.6666666666667,17.958333333333332,1120,19C1153.3333333333333,20.041666666666668,1166.6666666666667,37.958333333333336,1200,39C1233.3333333333333,40.041666666666664,1246.6666666666667,23.166666666666668,1280,24C1313.3333333333333,24.833333333333332,1326.6666666666667,42.166666666666664,1360,43C1393.3333333333333,43.833333333333336,1406.6666666666667,27.375,1440,28C1473.3333333333333,28.625,1486.6666666666667,45.166666666666664,1520,46C1553.3333333333333,46.833333333333336,1566.6666666666667,31.166666666666668,1600,32C1633.3333333333333,32.833333333333336,1646.6666666666667,49.375,1680,50C1713.3333333333333,50.625,1726.6666666666667,34.166666666666664,1760,35C1793.3333333333333,35.833333333333336,1806.6666666666667,52.958333333333336,1840,54C1873.3333333333333,55.041666666666664,1886.6666666666667,39.166666666666664,1920,40C1953.3333333333333,40.833333333333336,1966.6666666666667,57.375,2000,58C2033.3333333333333,58.625,2046.6666666666667,42.166666666666664,2080,43C2113.3333333333335,43.833333333333336,2126.6666666666665,60.958333333333336,2160,62C2193.3333333333335,63.041666666666664,2206.6666666666665,47.166666666666664,2240,48C2273.3333333333335,48.833333333333336,2286.6666666666665,65.375,2320,66C2353.3333333333335,66.625,2331.25,-18.58333333333333,2400,51C2468.75,120.58333333333333,3254.1666666666665,223.125,2650,400C2045.8333333333335,576.875,156.25,795.8333333333334,-500,900" transform="matrix(1,0,0,1,0,611)" opacity="0.81"></path><path d="M-10,10C8.75,10,44.583333333333336,13.125,80,10C115.41666666666666,6.875,126.66666666666666,-6.041666666666667,160,-5C193.33333333333334,-3.958333333333333,206.66666666666666,13.958333333333334,240,15C273.3333333333333,16.041666666666668,286.6666666666667,-0.8333333333333333,320,0C353.3333333333333,0.8333333333333333,366.6666666666667,18.166666666666668,400,19C433.3333333333333,19.833333333333332,446.6666666666667,3.375,480,4C513.3333333333334,4.625,526.6666666666666,21.375,560,22C593.3333333333334,22.625,606.6666666666666,5.958333333333333,640,7C673.3333333333334,8.041666666666666,686.6666666666666,25.958333333333332,720,27C753.3333333333334,28.041666666666668,766.6666666666666,11.375,800,12C833.3333333333334,12.625,846.6666666666666,29.166666666666668,880,30C913.3333333333334,30.833333333333332,926.6666666666666,15.166666666666666,960,16C993.3333333333334,16.833333333333332,1006.6666666666666,33.375,1040,34C1073.3333333333333,34.625,1086.6666666666667,17.958333333333332,1120,19C1153.3333333333333,20.041666666666668,1166.6666666666667,37.958333333333336,1200,39C1233.3333333333333,40.041666666666664,1246.6666666666667,23.166666666666668,1280,24C1313.3333333333333,24.833333333333332,1326.6666666666667,42.166666666666664,1360,43C1393.3333333333333,43.833333333333336,1406.6666666666667,27.375,1440,28C1473.3333333333333,28.625,1486.6666666666667,45.166666666666664,1520,46C1553.3333333333333,46.833333333333336,1566.6666666666667,31.166666666666668,1600,32C1633.3333333333333,32.833333333333336,1646.6666666666667,49.375,1680,50C1713.3333333333333,50.625,1726.6666666666667,34.166666666666664,1760,35C1793.3333333333333,35.833333333333336,1806.6666666666667,52.958333333333336,1840,54C1873.3333333333333,55.041666666666664,1886.6666666666667,39.166666666666664,1920,40C1953.3333333333333,40.833333333333336,1966.6666666666667,57.375,2000,58C2033.3333333333333,58.625,2046.6666666666667,42.166666666666664,2080,43C2113.3333333333335,43.833333333333336,2126.6666666666665,60.958333333333336,2160,62C2193.3333333333335,63.041666666666664,2206.6666666666665,47.166666666666664,2240,48C2273.3333333333335,48.833333333333336,2286.6666666666665,65.375,2320,66C2353.3333333333335,66.625,2331.25,-18.58333333333333,2400,51C2468.75,120.58333333333333,3254.1666666666665,223.125,2650,400C2045.8333333333335,576.875,156.25,795.8333333333334,-500,900" transform="matrix(1,0,0,1,0,658)" opacity="0.87"></path><path d="M-10,10C8.75,10,44.583333333333336,13.125,80,10C115.41666666666666,6.875,126.66666666666666,-6.041666666666667,160,-5C193.33333333333334,-3.958333333333333,206.66666666666666,13.958333333333334,240,15C273.3333333333333,16.041666666666668,286.6666666666667,-0.8333333333333333,320,0C353.3333333333333,0.8333333333333333,366.6666666666667,18.166666666666668,400,19C433.3333333333333,19.833333333333332,446.6666666666667,3.375,480,4C513.3333333333334,4.625,526.6666666666666,21.375,560,22C593.3333333333334,22.625,606.6666666666666,5.958333333333333,640,7C673.3333333333334,8.041666666666666,686.6666666666666,25.958333333333332,720,27C753.3333333333334,28.041666666666668,766.6666666666666,11.375,800,12C833.3333333333334,12.625,846.6666666666666,29.166666666666668,880,30C913.3333333333334,30.833333333333332,926.6666666666666,15.166666666666666,960,16C993.3333333333334,16.833333333333332,1006.6666666666666,33.375,1040,34C1073.3333333333333,34.625,1086.6666666666667,17.958333333333332,1120,19C1153.3333333333333,20.041666666666668,1166.6666666666667,37.958333333333336,1200,39C1233.3333333333333,40.041666666666664,1246.6666666666667,23.166666666666668,1280,24C1313.3333333333333,24.833333333333332,1326.6666666666667,42.166666666666664,1360,43C1393.3333333333333,43.833333333333336,1406.6666666666667,27.375,1440,28C1473.3333333333333,28.625,1486.6666666666667,45.166666666666664,1520,46C1553.3333333333333,46.833333333333336,1566.6666666666667,31.166666666666668,1600,32C1633.3333333333333,32.833333333333336,1646.6666666666667,49.375,1680,50C1713.3333333333333,50.625,1726.6666666666667,34.166666666666664,1760,35C1793.3333333333333,35.833333333333336,1806.6666666666667,52.958333333333336,1840,54C1873.3333333333333,55.041666666666664,1886.6666666666667,39.166666666666664,1920,40C1953.3333333333333,40.833333333333336,1966.6666666666667,57.375,2000,58C2033.3333333333333,58.625,2046.6666666666667,42.166666666666664,2080,43C2113.3333333333335,43.833333333333336,2126.6666666666665,60.958333333333336,2160,62C2193.3333333333335,63.041666666666664,2206.6666666666665,47.166666666666664,2240,48C2273.3333333333335,48.833333333333336,2286.6666666666665,65.375,2320,66C2353.3333333333335,66.625,2331.25,-18.58333333333333,2400,51C2468.75,120.58333333333333,3254.1666666666665,223.125,2650,400C2045.8333333333335,576.875,156.25,795.8333333333334,-500,900" transform="matrix(1,0,0,1,0,705)" opacity="0.94"></path><path d="M-10,10C8.75,10,44.583333333333336,13.125,80,10C115.41666666666666,6.875,126.66666666666666,-6.041666666666667,160,-5C193.33333333333334,-3.958333333333333,206.66666666666666,13.958333333333334,240,15C273.3333333333333,16.041666666666668,286.6666666666667,-0.8333333333333333,320,0C353.3333333333333,0.8333333333333333,366.6666666666667,18.166666666666668,400,19C433.3333333333333,19.833333333333332,446.6666666666667,3.375,480,4C513.3333333333334,4.625,526.6666666666666,21.375,560,22C593.3333333333334,22.625,606.6666666666666,5.958333333333333,640,7C673.3333333333334,8.041666666666666,686.6666666666666,25.958333333333332,720,27C753.3333333333334,28.041666666666668,766.6666666666666,11.375,800,12C833.3333333333334,12.625,846.6666666666666,29.166666666666668,880,30C913.3333333333334,30.833333333333332,926.6666666666666,15.166666666666666,960,16C993.3333333333334,16.833333333333332,1006.6666666666666,33.375,1040,34C1073.3333333333333,34.625,1086.6666666666667,17.958333333333332,1120,19C1153.3333333333333,20.041666666666668,1166.6666666666667,37.958333333333336,1200,39C1233.3333333333333,40.041666666666664,1246.6666666666667,23.166666666666668,1280,24C1313.3333333333333,24.833333333333332,1326.6666666666667,42.166666666666664,1360,43C1393.3333333333333,43.833333333333336,1406.6666666666667,27.375,1440,28C1473.3333333333333,28.625,1486.6666666666667,45.166666666666664,1520,46C1553.3333333333333,46.833333333333336,1566.6666666666667,31.166666666666668,1600,32C1633.3333333333333,32.833333333333336,1646.6666666666667,49.375,1680,50C1713.3333333333333,50.625,1726.6666666666667,34.166666666666664,1760,35C1793.3333333333333,35.833333333333336,1806.6666666666667,52.958333333333336,1840,54C1873.3333333333333,55.041666666666664,1886.6666666666667,39.166666666666664,1920,40C1953.3333333333333,40.833333333333336,1966.6666666666667,57.375,2000,58C2033.3333333333333,58.625,2046.6666666666667,42.166666666666664,2080,43C2113.3333333333335,43.833333333333336,2126.6666666666665,60.958333333333336,2160,62C2193.3333333333335,63.041666666666664,2206.6666666666665,47.166666666666664,2240,48C2273.3333333333335,48.833333333333336,2286.6666666666665,65.375,2320,66C2353.3333333333335,66.625,2331.25,-18.58333333333333,2400,51C2468.75,120.58333333333333,3254.1666666666665,223.125,2650,400C2045.8333333333335,576.875,156.25,795.8333333333334,-500,900" transform="matrix(1,0,0,1,0,752)" opacity="1.00"></path></g></svg>