<svg xmlns="http://www.w3.org/2000/svg" viewBox="0 0 1707 898" preserveAspectRatio="xMidYMid" width="1707" height="898" xmlns:xlink="http://www.w3.org/1999/xlink" style="shape-rendering:auto;display:block;background-position-x:0%;background-position-y:0%;background-size:auto;background-origin:padding-box;background-clip:border-box;background:scroll rgba(0, 0, 0, 0) none  repeat;width:1707px;height:898px;;animation:none"><g><linearGradient y2="0" y1="0" x2="1" x1="0" id="lg-6txvib78hzj"><stop offset="0" stop-color="#013ca6"></stop>

  
<stop offset="1" stop-color="#a2dbc5"></stop></linearGradient>
<path opacity="0.4" fill="url(#lg-6txvib78hzj)" d="M 0 0 L 0 544.56 Q 170.7 530.06 341.4 496.88 T 682.8 547.37 T 1024.2 449.91 T 1365.6 413.33 T 1707 276.04 L 1707 0 Z" style="fill:url('#lg-6txvib78hzj');opacity:0.4;;animation:none"></path>
<path opacity="0.4" fill="url(#lg-6txvib78hzj)" d="M 0 0 L 0 564.673 Q 170.7 509.476 341.4 485.332 T 682.8 412.227 T 1024.2 413.669 T 1365.6 325.086 T 1707 285.364 L 1707 0 Z" style="fill:url('#lg-6txvib78hzj');opacity:0.4;;animation:none"></path>
<path opacity="0.4" fill="url(#lg-6txvib78hzj)" d="M 0 0 L 0 538.369 Q 170.7 590.49 341.4 566.472 T 682.8 467.845 T 1024.2 403.193 T 1365.6 394.576 T 1707 217.634 L 1707 0 Z" style="fill:url('#lg-6txvib78hzj');opacity:0.4;;animation:none"></path>
<path opacity="0.4" fill="url(#lg-6txvib78hzj)" d="M 0 0 L 0 637.727 Q 170.7 549.303 341.4 523.048 T 682.8 554.782 T 1024.2 460.427 T 1365.6 349.481 T 1707 269.629 L 1707 0 Z" style="fill:url('#lg-6txvib78hzj');opacity:0.4;;animation:none"></path>
<path opacity="0.4" fill="url(#lg-6txvib78hzj)" d="M 0 0 L 0 547.243 Q 170.7 603.978 341.4 571.141 T 682.8 396.822 T 1024.2 338.519 T 1365.6 407.566 T 1707 264.382 L 1707 0 Z" style="fill:url('#lg-6txvib78hzj');opacity:0.4;;animation:none"></path>
<g></g></g><!-- [ldio] generated by https://loading.io --></svg>