<svg xmlns="http://www.w3.org/2000/svg" version="1.1" xmlns:xlink="http://www.w3.org/1999/xlink" xmlns:svgjs="http://svgjs.dev/svgjs" viewBox="0 0 2400 800" opacity="1"><defs><linearGradient x1="50%" y1="0%" x2="50%" y2="100%" id="sssurf-grad"><stop stop-color="hsla(220, 81%, 40%, 1.00)" stop-opacity="1" offset="0%"></stop><stop stop-color="hsl(208, 74%, 93%)" stop-opacity="1" offset="100%"></stop></linearGradient></defs><g fill="url(#sssurf-grad)" transform="matrix(1,0,0,1,0,-282.9237365722656)"><path d="M 0 319.05918351186426 Q 342.85714285714283 450 342.85714285714283 320.00110137758907 Q 685.7142857142857 450 685.7142857142857 322.6130504787657 Q 1028.5714285714284 450 1028.5714285714284 322.40124522242786 Q 1371.4285714285713 450 1371.4285714285713 319.498300107403 Q 1714.2857142857142 450 1714.2857142857142 317.8475137758544 Q 2057.142857142857 450 2057.142857142857 320.5005160894346 Q 2400 450 2400 321.0073719629918 L 2400 800 L 0 800 L 0 320.8087479686976 Z" transform="matrix(1,0,0,1,0,54)" opacity="0.05"></path><path d="M 0 319.05918351186426 Q 342.85714285714283 450 342.85714285714283 320.00110137758907 Q 685.7142857142857 450 685.7142857142857 322.6130504787657 Q 1028.5714285714284 450 1028.5714285714284 322.40124522242786 Q 1371.4285714285713 450 1371.4285714285713 319.498300107403 Q 1714.2857142857142 450 1714.2857142857142 317.8475137758544 Q 2057.142857142857 450 2057.142857142857 320.5005160894346 Q 2400 450 2400 321.0073719629918 L 2400 800 L 0 800 L 0 320.8087479686976 Z" transform="matrix(1,0,0,1,0,108)" opacity="0.15"></path><path d="M 0 319.05918351186426 Q 342.85714285714283 450 342.85714285714283 320.00110137758907 Q 685.7142857142857 450 685.7142857142857 322.6130504787657 Q 1028.5714285714284 450 1028.5714285714284 322.40124522242786 Q 1371.4285714285713 450 1371.4285714285713 319.498300107403 Q 1714.2857142857142 450 1714.2857142857142 317.8475137758544 Q 2057.142857142857 450 2057.142857142857 320.5005160894346 Q 2400 450 2400 321.0073719629918 L 2400 800 L 0 800 L 0 320.8087479686976 Z" transform="matrix(1,0,0,1,0,162)" opacity="0.24"></path><path d="M 0 319.05918351186426 Q 342.85714285714283 450 342.85714285714283 320.00110137758907 Q 685.7142857142857 450 685.7142857142857 322.6130504787657 Q 1028.5714285714284 450 1028.5714285714284 322.40124522242786 Q 1371.4285714285713 450 1371.4285714285713 319.498300107403 Q 1714.2857142857142 450 1714.2857142857142 317.8475137758544 Q 2057.142857142857 450 2057.142857142857 320.5005160894346 Q 2400 450 2400 321.0073719629918 L 2400 800 L 0 800 L 0 320.8087479686976 Z" transform="matrix(1,0,0,1,0,216)" opacity="0.34"></path><path d="M 0 319.05918351186426 Q 342.85714285714283 450 342.85714285714283 320.00110137758907 Q 685.7142857142857 450 685.7142857142857 322.6130504787657 Q 1028.5714285714284 450 1028.5714285714284 322.40124522242786 Q 1371.4285714285713 450 1371.4285714285713 319.498300107403 Q 1714.2857142857142 450 1714.2857142857142 317.8475137758544 Q 2057.142857142857 450 2057.142857142857 320.5005160894346 Q 2400 450 2400 321.0073719629918 L 2400 800 L 0 800 L 0 320.8087479686976 Z" transform="matrix(1,0,0,1,0,270)" opacity="0.43"></path><path d="M 0 319.05918351186426 Q 342.85714285714283 450 342.85714285714283 320.00110137758907 Q 685.7142857142857 450 685.7142857142857 322.6130504787657 Q 1028.5714285714284 450 1028.5714285714284 322.40124522242786 Q 1371.4285714285713 450 1371.4285714285713 319.498300107403 Q 1714.2857142857142 450 1714.2857142857142 317.8475137758544 Q 2057.142857142857 450 2057.142857142857 320.5005160894346 Q 2400 450 2400 321.0073719629918 L 2400 800 L 0 800 L 0 320.8087479686976 Z" transform="matrix(1,0,0,1,0,324)" opacity="0.53"></path><path d="M 0 319.05918351186426 Q 342.85714285714283 450 342.85714285714283 320.00110137758907 Q 685.7142857142857 450 685.7142857142857 322.6130504787657 Q 1028.5714285714284 450 1028.5714285714284 322.40124522242786 Q 1371.4285714285713 450 1371.4285714285713 319.498300107403 Q 1714.2857142857142 450 1714.2857142857142 317.8475137758544 Q 2057.142857142857 450 2057.142857142857 320.5005160894346 Q 2400 450 2400 321.0073719629918 L 2400 800 L 0 800 L 0 320.8087479686976 Z" transform="matrix(1,0,0,1,0,378)" opacity="0.62"></path><path d="M 0 319.05918351186426 Q 342.85714285714283 450 342.85714285714283 320.00110137758907 Q 685.7142857142857 450 685.7142857142857 322.6130504787657 Q 1028.5714285714284 450 1028.5714285714284 322.40124522242786 Q 1371.4285714285713 450 1371.4285714285713 319.498300107403 Q 1714.2857142857142 450 1714.2857142857142 317.8475137758544 Q 2057.142857142857 450 2057.142857142857 320.5005160894346 Q 2400 450 2400 321.0073719629918 L 2400 800 L 0 800 L 0 320.8087479686976 Z" transform="matrix(1,0,0,1,0,432)" opacity="0.72"></path><path d="M 0 319.05918351186426 Q 342.85714285714283 450 342.85714285714283 320.00110137758907 Q 685.7142857142857 450 685.7142857142857 322.6130504787657 Q 1028.5714285714284 450 1028.5714285714284 322.40124522242786 Q 1371.4285714285713 450 1371.4285714285713 319.498300107403 Q 1714.2857142857142 450 1714.2857142857142 317.8475137758544 Q 2057.142857142857 450 2057.142857142857 320.5005160894346 Q 2400 450 2400 321.0073719629918 L 2400 800 L 0 800 L 0 320.8087479686976 Z" transform="matrix(1,0,0,1,0,486)" opacity="0.81"></path><path d="M 0 319.05918351186426 Q 342.85714285714283 450 342.85714285714283 320.00110137758907 Q 685.7142857142857 450 685.7142857142857 322.6130504787657 Q 1028.5714285714284 450 1028.5714285714284 322.40124522242786 Q 1371.4285714285713 450 1371.4285714285713 319.498300107403 Q 1714.2857142857142 450 1714.2857142857142 317.8475137758544 Q 2057.142857142857 450 2057.142857142857 320.5005160894346 Q 2400 450 2400 321.0073719629918 L 2400 800 L 0 800 L 0 320.8087479686976 Z" transform="matrix(1,0,0,1,0,540)" opacity="0.91"></path><path d="M 0 319.05918351186426 Q 342.85714285714283 450 342.85714285714283 320.00110137758907 Q 685.7142857142857 450 685.7142857142857 322.6130504787657 Q 1028.5714285714284 450 1028.5714285714284 322.40124522242786 Q 1371.4285714285713 450 1371.4285714285713 319.498300107403 Q 1714.2857142857142 450 1714.2857142857142 317.8475137758544 Q 2057.142857142857 450 2057.142857142857 320.5005160894346 Q 2400 450 2400 321.0073719629918 L 2400 800 L 0 800 L 0 320.8087479686976 Z" transform="matrix(1,0,0,1,0,594)" opacity="1.00"></path></g></svg>