<svg xmlns="http://www.w3.org/2000/svg" version="1.1" xmlns:xlink="http://www.w3.org/1999/xlink" xmlns:svgjs="http://svgjs.dev/svgjs" viewBox="0 0 2400 800" opacity="1"><defs><linearGradient x1="50%" y1="0%" x2="50%" y2="100%" id="sssurf-grad"><stop stop-color="hsla(230, 67%, 37%, 1.00)" stop-opacity="1" offset="0%"></stop><stop stop-color="hsla(226, 35%, 78%, 1.00)" stop-opacity="1" offset="100%"></stop></linearGradient></defs><g fill="url(#sssurf-grad)" transform="matrix(1,0,0,1,0,-273.8785705566406)"><path d="M 0 318.62259593384965 Q 240 450 240 318.0388185828069 Q 480 450 480 317.9654952178152 Q 720 450 720 323.71542227734636 Q 960 450 960 318.9979077560015 Q 1200 450 1200 318.3871927296727 Q 1440 450 1440 320.04201112884454 Q 1680 450 1680 320.4599645281407 Q 1920 450 1920 319.8669248466155 Q 2160 450 2160 319.52138963581245 Q 2400 450 2400 322.52234553062124 L 2400 800 L 0 800 L 0 317.75716243016745 Z" transform="matrix(1,0,0,1,0,35)" opacity="0.05"></path><path d="M 0 318.62259593384965 Q 240 450 240 318.0388185828069 Q 480 450 480 317.9654952178152 Q 720 450 720 323.71542227734636 Q 960 450 960 318.9979077560015 Q 1200 450 1200 318.3871927296727 Q 1440 450 1440 320.04201112884454 Q 1680 450 1680 320.4599645281407 Q 1920 450 1920 319.8669248466155 Q 2160 450 2160 319.52138963581245 Q 2400 450 2400 322.52234553062124 L 2400 800 L 0 800 L 0 317.75716243016745 Z" transform="matrix(1,0,0,1,0,70)" opacity="0.11"></path><path d="M 0 318.62259593384965 Q 240 450 240 318.0388185828069 Q 480 450 480 317.9654952178152 Q 720 450 720 323.71542227734636 Q 960 450 960 318.9979077560015 Q 1200 450 1200 318.3871927296727 Q 1440 450 1440 320.04201112884454 Q 1680 450 1680 320.4599645281407 Q 1920 450 1920 319.8669248466155 Q 2160 450 2160 319.52138963581245 Q 2400 450 2400 322.52234553062124 L 2400 800 L 0 800 L 0 317.75716243016745 Z" transform="matrix(1,0,0,1,0,105)" opacity="0.17"></path><path d="M 0 318.62259593384965 Q 240 450 240 318.0388185828069 Q 480 450 480 317.9654952178152 Q 720 450 720 323.71542227734636 Q 960 450 960 318.9979077560015 Q 1200 450 1200 318.3871927296727 Q 1440 450 1440 320.04201112884454 Q 1680 450 1680 320.4599645281407 Q 1920 450 1920 319.8669248466155 Q 2160 450 2160 319.52138963581245 Q 2400 450 2400 322.52234553062124 L 2400 800 L 0 800 L 0 317.75716243016745 Z" transform="matrix(1,0,0,1,0,140)" opacity="0.23"></path><path d="M 0 318.62259593384965 Q 240 450 240 318.0388185828069 Q 480 450 480 317.9654952178152 Q 720 450 720 323.71542227734636 Q 960 450 960 318.9979077560015 Q 1200 450 1200 318.3871927296727 Q 1440 450 1440 320.04201112884454 Q 1680 450 1680 320.4599645281407 Q 1920 450 1920 319.8669248466155 Q 2160 450 2160 319.52138963581245 Q 2400 450 2400 322.52234553062124 L 2400 800 L 0 800 L 0 317.75716243016745 Z" transform="matrix(1,0,0,1,0,175)" opacity="0.29"></path><path d="M 0 318.62259593384965 Q 240 450 240 318.0388185828069 Q 480 450 480 317.9654952178152 Q 720 450 720 323.71542227734636 Q 960 450 960 318.9979077560015 Q 1200 450 1200 318.3871927296727 Q 1440 450 1440 320.04201112884454 Q 1680 450 1680 320.4599645281407 Q 1920 450 1920 319.8669248466155 Q 2160 450 2160 319.52138963581245 Q 2400 450 2400 322.52234553062124 L 2400 800 L 0 800 L 0 317.75716243016745 Z" transform="matrix(1,0,0,1,0,210)" opacity="0.35"></path><path d="M 0 318.62259593384965 Q 240 450 240 318.0388185828069 Q 480 450 480 317.9654952178152 Q 720 450 720 323.71542227734636 Q 960 450 960 318.9979077560015 Q 1200 450 1200 318.3871927296727 Q 1440 450 1440 320.04201112884454 Q 1680 450 1680 320.4599645281407 Q 1920 450 1920 319.8669248466155 Q 2160 450 2160 319.52138963581245 Q 2400 450 2400 322.52234553062124 L 2400 800 L 0 800 L 0 317.75716243016745 Z" transform="matrix(1,0,0,1,0,245)" opacity="0.41"></path><path d="M 0 318.62259593384965 Q 240 450 240 318.0388185828069 Q 480 450 480 317.9654952178152 Q 720 450 720 323.71542227734636 Q 960 450 960 318.9979077560015 Q 1200 450 1200 318.3871927296727 Q 1440 450 1440 320.04201112884454 Q 1680 450 1680 320.4599645281407 Q 1920 450 1920 319.8669248466155 Q 2160 450 2160 319.52138963581245 Q 2400 450 2400 322.52234553062124 L 2400 800 L 0 800 L 0 317.75716243016745 Z" transform="matrix(1,0,0,1,0,280)" opacity="0.47"></path><path d="M 0 318.62259593384965 Q 240 450 240 318.0388185828069 Q 480 450 480 317.9654952178152 Q 720 450 720 323.71542227734636 Q 960 450 960 318.9979077560015 Q 1200 450 1200 318.3871927296727 Q 1440 450 1440 320.04201112884454 Q 1680 450 1680 320.4599645281407 Q 1920 450 1920 319.8669248466155 Q 2160 450 2160 319.52138963581245 Q 2400 450 2400 322.52234553062124 L 2400 800 L 0 800 L 0 317.75716243016745 Z" transform="matrix(1,0,0,1,0,315)" opacity="0.53"></path><path d="M 0 318.62259593384965 Q 240 450 240 318.0388185828069 Q 480 450 480 317.9654952178152 Q 720 450 720 323.71542227734636 Q 960 450 960 318.9979077560015 Q 1200 450 1200 318.3871927296727 Q 1440 450 1440 320.04201112884454 Q 1680 450 1680 320.4599645281407 Q 1920 450 1920 319.8669248466155 Q 2160 450 2160 319.52138963581245 Q 2400 450 2400 322.52234553062124 L 2400 800 L 0 800 L 0 317.75716243016745 Z" transform="matrix(1,0,0,1,0,350)" opacity="0.58"></path><path d="M 0 318.62259593384965 Q 240 450 240 318.0388185828069 Q 480 450 480 317.9654952178152 Q 720 450 720 323.71542227734636 Q 960 450 960 318.9979077560015 Q 1200 450 1200 318.3871927296727 Q 1440 450 1440 320.04201112884454 Q 1680 450 1680 320.4599645281407 Q 1920 450 1920 319.8669248466155 Q 2160 450 2160 319.52138963581245 Q 2400 450 2400 322.52234553062124 L 2400 800 L 0 800 L 0 317.75716243016745 Z" transform="matrix(1,0,0,1,0,385)" opacity="0.64"></path><path d="M 0 318.62259593384965 Q 240 450 240 318.0388185828069 Q 480 450 480 317.9654952178152 Q 720 450 720 323.71542227734636 Q 960 450 960 318.9979077560015 Q 1200 450 1200 318.3871927296727 Q 1440 450 1440 320.04201112884454 Q 1680 450 1680 320.4599645281407 Q 1920 450 1920 319.8669248466155 Q 2160 450 2160 319.52138963581245 Q 2400 450 2400 322.52234553062124 L 2400 800 L 0 800 L 0 317.75716243016745 Z" transform="matrix(1,0,0,1,0,420)" opacity="0.70"></path><path d="M 0 318.62259593384965 Q 240 450 240 318.0388185828069 Q 480 450 480 317.9654952178152 Q 720 450 720 323.71542227734636 Q 960 450 960 318.9979077560015 Q 1200 450 1200 318.3871927296727 Q 1440 450 1440 320.04201112884454 Q 1680 450 1680 320.4599645281407 Q 1920 450 1920 319.8669248466155 Q 2160 450 2160 319.52138963581245 Q 2400 450 2400 322.52234553062124 L 2400 800 L 0 800 L 0 317.75716243016745 Z" transform="matrix(1,0,0,1,0,455)" opacity="0.76"></path><path d="M 0 318.62259593384965 Q 240 450 240 318.0388185828069 Q 480 450 480 317.9654952178152 Q 720 450 720 323.71542227734636 Q 960 450 960 318.9979077560015 Q 1200 450 1200 318.3871927296727 Q 1440 450 1440 320.04201112884454 Q 1680 450 1680 320.4599645281407 Q 1920 450 1920 319.8669248466155 Q 2160 450 2160 319.52138963581245 Q 2400 450 2400 322.52234553062124 L 2400 800 L 0 800 L 0 317.75716243016745 Z" transform="matrix(1,0,0,1,0,490)" opacity="0.82"></path><path d="M 0 318.62259593384965 Q 240 450 240 318.0388185828069 Q 480 450 480 317.9654952178152 Q 720 450 720 323.71542227734636 Q 960 450 960 318.9979077560015 Q 1200 450 1200 318.3871927296727 Q 1440 450 1440 320.04201112884454 Q 1680 450 1680 320.4599645281407 Q 1920 450 1920 319.8669248466155 Q 2160 450 2160 319.52138963581245 Q 2400 450 2400 322.52234553062124 L 2400 800 L 0 800 L 0 317.75716243016745 Z" transform="matrix(1,0,0,1,0,525)" opacity="0.88"></path><path d="M 0 318.62259593384965 Q 240 450 240 318.0388185828069 Q 480 450 480 317.9654952178152 Q 720 450 720 323.71542227734636 Q 960 450 960 318.9979077560015 Q 1200 450 1200 318.3871927296727 Q 1440 450 1440 320.04201112884454 Q 1680 450 1680 320.4599645281407 Q 1920 450 1920 319.8669248466155 Q 2160 450 2160 319.52138963581245 Q 2400 450 2400 322.52234553062124 L 2400 800 L 0 800 L 0 317.75716243016745 Z" transform="matrix(1,0,0,1,0,560)" opacity="0.94"></path><path d="M 0 318.62259593384965 Q 240 450 240 318.0388185828069 Q 480 450 480 317.9654952178152 Q 720 450 720 323.71542227734636 Q 960 450 960 318.9979077560015 Q 1200 450 1200 318.3871927296727 Q 1440 450 1440 320.04201112884454 Q 1680 450 1680 320.4599645281407 Q 1920 450 1920 319.8669248466155 Q 2160 450 2160 319.52138963581245 Q 2400 450 2400 322.52234553062124 L 2400 800 L 0 800 L 0 317.75716243016745 Z" transform="matrix(1,0,0,1,0,595)" opacity="1.00"></path></g></svg>